<svg width="24" height="24" viewBox="0 0 24 24" fill="none" xmlns="http://www.w3.org/2000/svg">
<path d="M0.800781 7.18816C0.852084 6.906 0.903386 6.63666 0.98034 6.35449C1.55749 4.12283 3.54547 2.49397 5.78996 2.40419C8.22683 2.31441 10.3046 3.72523 11.087 5.96972C11.1126 6.0595 11.1511 6.13646 11.1767 6.22624C11.5359 6.22624 11.895 6.22624 12.2669 6.22624C13.6906 6.22624 15.1014 6.22624 16.525 6.22624C17.3715 6.22624 18.1154 6.48275 18.7567 7.02143C20.0649 8.11161 21.3731 9.20179 22.6813 10.292C23.6048 11.0615 23.9511 12.0747 23.8485 13.2547C23.7587 14.3577 23.4509 15.3838 22.9379 16.3585C22.6942 16.8074 22.4761 17.2691 22.2581 17.718C21.9375 18.3593 21.6553 18.5645 20.9499 18.7056C20.7831 19.6675 20.3086 20.4499 19.5006 21.0014C18.8721 21.4246 18.1795 21.6042 17.41 21.5657C16.2557 21.5016 14.691 20.6936 14.3062 18.7056C13.0108 18.7056 11.7026 18.7056 10.3815 18.7056C10.2148 19.6419 9.76591 20.3986 8.99637 20.9629C8.43204 21.3733 7.79076 21.5785 7.08535 21.5785C6.25168 21.5785 5.5078 21.2964 4.87934 20.7577C4.25088 20.219 3.89176 19.5264 3.76351 18.7825C3.30178 18.6671 2.86571 18.603 2.48094 18.4363C1.58315 18.0387 1.05729 17.3204 0.86491 16.3585C0.839258 16.3457 0.813607 16.3072 0.800781 16.2815C0.800781 16.0379 0.800781 15.807 0.800781 15.5633C0.98034 15.1016 1.13425 14.627 1.33946 14.191C1.7114 13.4086 2.109 12.6391 2.49377 11.8567C2.53224 11.7797 2.5579 11.7156 2.59637 11.6387C1.72423 10.8435 1.14707 9.88155 0.916212 8.74007C0.86491 8.53485 0.839258 8.32964 0.800781 8.12443C0.800781 7.81662 0.800781 7.49598 0.800781 7.18816ZM11.3563 7.20099C11.4461 9.30439 10.6765 10.9974 8.89377 12.126C7.09818 13.2675 5.23846 13.2162 3.37874 12.2286C2.87854 13.2419 2.36551 14.2294 1.90379 15.2427C1.77553 15.5248 1.76271 15.9096 1.80118 16.2302C1.90379 17.1409 2.85289 17.8719 3.72503 17.7437C4.0585 15.8711 5.6617 14.8322 7.1623 14.8836C8.43204 14.9349 9.98395 15.7813 10.3687 17.7565C11.6769 17.7565 12.9852 17.7565 14.2934 17.7565C14.5884 16.0892 15.8709 15.0246 17.3202 14.8964C18.0385 14.8322 18.7054 14.9862 19.321 15.3709C20.206 15.9096 20.719 16.7176 20.9242 17.7308C21.1423 17.718 21.2449 17.5898 21.3218 17.423C21.604 16.8715 21.8733 16.3072 22.1555 15.7557C22.6044 14.8836 22.8481 13.9473 22.8866 12.9725C22.9122 12.1902 22.6429 11.5489 22.0529 11.0487C20.7575 9.97133 19.4493 8.89397 18.1667 7.80379C17.6665 7.38055 17.115 7.18816 16.4737 7.18816C14.8577 7.20099 13.2288 7.18816 11.6128 7.18816C11.523 7.20099 11.4461 7.20099 11.3563 7.20099ZM10.3944 7.68836C10.3944 5.31562 8.47052 3.36612 6.1106 3.36612C3.7122 3.35329 1.76271 5.28996 1.76271 7.67554C1.76271 10.0483 3.69938 11.9978 6.08495 11.9978C8.4577 11.9978 10.3944 10.0739 10.3944 7.68836ZM9.44527 18.2567C9.44527 16.9357 8.36792 15.8455 7.04687 15.8455C5.72583 15.8455 4.63565 16.9357 4.63565 18.2567C4.63565 19.5649 5.71301 20.6423 7.02122 20.6551C8.35509 20.6551 9.43244 19.5777 9.44527 18.2567ZM15.204 18.2439C15.204 19.5649 16.2942 20.6423 17.6024 20.6423C18.9234 20.6423 20.0136 19.5521 20.0008 18.231C19.988 16.9228 18.9106 15.8455 17.6024 15.8327C16.2942 15.8327 15.204 16.9228 15.204 18.2439Z" fill="#504949"/>
<path d="M18.5514 12.9597C17.6408 12.9597 16.7174 12.9597 15.8067 12.9597C15.3322 12.9597 15.127 12.716 15.2424 12.2543C15.5502 11.0359 15.8452 9.81743 16.153 8.58617C16.2685 8.1501 16.6404 8.02184 16.9867 8.30401C18.5514 9.54809 20.1162 10.805 21.6809 12.0619C21.8989 12.2415 21.9631 12.4467 21.8861 12.6519C21.7963 12.8828 21.6039 12.9597 21.3602 12.9597C20.424 12.9597 19.4877 12.9597 18.5514 12.9597ZM16.9226 9.48397C16.7045 10.3433 16.4993 11.1641 16.2941 11.985C17.551 11.985 18.7823 11.985 20.052 11.985C19.0003 11.1385 17.9871 10.3305 16.9226 9.48397Z" fill="#504949"/>
<path d="M5.61199 8.16303C5.18875 8.16303 4.79115 8.16303 4.39356 8.16303C4.30378 8.16303 4.214 8.16303 4.12422 8.1502C3.85488 8.11172 3.67532 7.91934 3.68815 7.66283C3.68815 7.41914 3.88053 7.21393 4.14987 7.2011C4.40638 7.18828 4.67572 7.2011 4.93223 7.18828C5.15027 7.18828 5.36831 7.18828 5.61199 7.18828C5.61199 6.77786 5.61199 6.39309 5.61199 5.99549C5.61199 5.90571 5.61199 5.81593 5.61199 5.72615C5.63764 5.44399 5.83003 5.26443 6.09937 5.27726C6.35588 5.29008 6.56109 5.48247 6.56109 5.7518C6.57392 6.17505 6.56109 6.61112 6.56109 7.03437C6.56109 7.07285 6.56109 7.11132 6.57392 7.17545C6.7663 7.17545 6.95869 7.17545 7.15107 7.17545C7.42041 7.17545 7.68975 7.17545 7.95909 7.17545C8.2669 7.18828 8.48494 7.38066 8.48494 7.65C8.48494 7.93217 8.27973 8.13738 7.95909 8.13738C7.58714 8.1502 7.2152 8.13738 6.83043 8.13738C6.75348 8.13738 6.6637 8.13738 6.56109 8.13738C6.56109 8.61192 6.56109 9.07365 6.56109 9.52255C6.56109 9.79189 6.40718 9.9971 6.17632 10.0356C5.86851 10.1254 5.62482 9.92014 5.61199 9.58667C5.59917 9.20191 5.61199 8.81714 5.61199 8.44519C5.61199 8.36824 5.61199 8.27846 5.61199 8.16303Z" fill="#504949"/>
</svg>
