
<svg width="24" height="26" viewBox="0 0 24 26" fill="none" xmlns="http://www.w3.org/2000/svg">
<g filter="url(#filter0_d_3919_30864)">
<g clip-path="url(#clip0_3919_30864)">
<path d="M7.05835 3C10.4811 3 13.8992 3 17.322 3C17.3782 3.05158 17.4345 3.09846 17.4861 3.15004C18.0909 3.75488 18.6958 4.35973 19.3006 4.95989C19.4038 5.06304 19.4459 5.17557 19.4459 5.32092C19.4459 9.79865 19.4459 14.2717 19.4459 18.7494C19.4459 19.0307 19.3569 19.1198 19.0802 19.1198C18.6254 19.1198 18.1659 19.1245 17.7111 19.1151C17.5939 19.1151 17.5658 19.148 17.5658 19.2605C17.5705 19.7059 17.5611 20.1513 17.5705 20.5968C17.5751 20.7703 17.5283 20.9015 17.3923 21C13.3272 21 9.26205 21 5.19224 21C5.04689 20.9156 5 20.789 5 20.6202C5.00469 15.4954 5 10.3754 5.00469 5.25059C5.00469 4.97395 5.09377 4.88487 5.3751 4.88487C5.8299 4.88487 6.2894 4.88018 6.7442 4.88955C6.86142 4.88955 6.88955 4.85673 6.88487 4.7442C6.88018 4.29878 6.88955 3.85335 6.88018 3.40792C6.87549 3.23444 6.91769 3.09846 7.05835 3ZM5.56734 12.9307C5.56734 15.3782 5.56734 17.8257 5.56734 20.2732C5.56734 20.3811 5.57202 20.4374 5.71269 20.4374C9.43084 20.4327 13.149 20.4327 16.8718 20.4374C16.9891 20.4374 17.0125 20.4045 17.0125 20.292C17.0078 16.0393 17.0078 11.7867 17.0125 7.53399C17.0125 7.40271 16.9656 7.38395 16.8531 7.38864C16.3795 7.39333 15.906 7.39333 15.4277 7.38864C15.1605 7.38864 15.0667 7.29487 15.0667 7.0323C15.0667 6.56812 15.062 6.10862 15.0714 5.64444C15.0761 5.48971 15.0386 5.43813 14.8744 5.43813C11.8408 5.44282 8.80724 5.44282 5.77364 5.43813C5.61891 5.43813 5.57202 5.47096 5.57202 5.63506C5.56734 8.0732 5.56734 10.502 5.56734 12.9307ZM17.5658 12.7713C17.5658 14.6468 17.5658 16.5223 17.5611 18.3931C17.5611 18.5244 17.5939 18.5619 17.7252 18.5572C18.0393 18.5478 18.3582 18.5431 18.6723 18.5572C18.8364 18.5666 18.888 18.5244 18.8833 18.3509C18.8786 16.0253 18.8786 13.6997 18.8786 11.3741C18.8786 9.48919 18.8739 7.59964 18.8833 5.71477C18.8833 5.52722 18.8317 5.4944 18.6582 5.49909C18.2128 5.51315 17.7674 5.50378 17.322 5.50378C17.0125 5.50378 16.9328 5.41938 16.9328 5.10524C16.9328 4.65043 16.9234 4.19094 16.9375 3.73613C16.9422 3.5814 16.8906 3.55796 16.7546 3.56265C15.6387 3.56734 14.5181 3.56265 13.4022 3.56265C11.4751 3.56265 9.54806 3.56265 7.62099 3.55796C7.47564 3.55796 7.43813 3.59547 7.44282 3.74082C7.45689 4.05496 7.45689 4.3738 7.44282 4.68794C7.43345 4.85204 7.48502 4.88487 7.64444 4.88487C10.167 4.88018 12.6942 4.88018 15.2167 4.88018C15.3855 4.88018 15.5121 4.93175 15.634 5.05366C16.2154 5.64444 16.8062 6.23522 17.397 6.81662C17.5189 6.93853 17.5705 7.06512 17.5705 7.23392C17.5658 9.08127 17.5658 10.9239 17.5658 12.7713ZM18.391 4.94113C18.0956 4.64574 17.7861 4.33629 17.5001 4.05496C17.5001 4.28471 17.5001 4.55666 17.5001 4.83329C17.5001 4.89424 17.4954 4.94582 17.5845 4.94582C17.8705 4.94113 18.1519 4.94113 18.391 4.94113ZM15.6246 5.88825C15.6246 6.17426 15.6246 6.45559 15.6246 6.7416C15.6246 6.79786 15.634 6.83069 15.6997 6.83069C15.9904 6.83069 16.2764 6.83069 16.5577 6.83069C16.2482 6.51654 15.9435 6.21177 15.6246 5.88825Z" fill="#C32222" stroke="#C32222" stroke-width="0.3"/>
<path d="M11.2979 15.9736C12.4419 15.9736 13.5813 15.9736 14.7253 15.9736C15.0254 15.9736 15.1145 16.058 15.1145 16.3581C15.1145 16.9958 15.1145 17.6334 15.1145 18.2758C15.1145 18.5431 15.0207 18.6368 14.7582 18.6368C12.4466 18.6368 10.1304 18.6368 7.81885 18.6368C7.5469 18.6368 7.45312 18.5384 7.45312 18.2617C7.45312 17.6241 7.45312 16.9864 7.45312 16.344C7.45312 16.0721 7.55159 15.9736 7.82353 15.9736C8.98165 15.9736 10.1398 15.9736 11.2979 15.9736ZM11.2557 18.0742C12.306 18.0742 13.3515 18.0742 14.4018 18.0742C14.5097 18.0742 14.5565 18.0554 14.5518 17.9335C14.5425 17.5115 14.5425 17.0895 14.5518 16.6676C14.5518 16.555 14.519 16.5316 14.4159 16.5363C12.3247 16.541 10.2335 16.541 8.14237 16.5363C8.02984 16.5363 8.00639 16.5691 8.01108 16.6769C8.01577 17.0849 8.02046 17.4975 8.01108 17.9054C8.00639 18.046 8.04859 18.0789 8.18457 18.0789C9.20671 18.0695 10.2335 18.0742 11.2557 18.0742Z" fill="#C32222" stroke="#C32222" stroke-width="0.3"/>
<path d="M11.2933 9.69556C12.428 9.69556 13.5626 9.69556 14.702 9.69556C14.7723 9.69556 14.8427 9.69556 14.913 9.70962C15.049 9.74244 15.1193 9.84091 15.1146 9.98157C15.1146 10.1222 15.0396 10.216 14.9036 10.2441C14.838 10.2582 14.763 10.2582 14.6926 10.2582C12.4233 10.2582 10.1492 10.2582 7.87991 10.2582C7.5939 10.2582 7.45792 10.1691 7.45323 9.98157C7.44855 9.78933 7.5939 9.69556 7.88929 9.69556C9.01927 9.69556 10.1586 9.69556 11.2933 9.69556Z" fill="#C32222" stroke="#C32222" stroke-width="0.3"/>
<path d="M11.2791 14.4452C10.1445 14.4452 9.00978 14.4452 7.87042 14.4452C7.81416 14.4452 7.7532 14.4452 7.69694 14.4358C7.54221 14.4124 7.45312 14.3092 7.45312 14.1592C7.45312 14.0092 7.53752 13.906 7.69694 13.8873C7.74851 13.8826 7.80009 13.8826 7.85636 13.8826C10.1398 13.8826 12.4232 13.8826 14.7066 13.8826C14.7722 13.8826 14.8379 13.8826 14.8988 13.8966C15.0348 13.9248 15.1098 14.0185 15.1145 14.1592C15.1192 14.2999 15.0489 14.3936 14.9129 14.4311C14.8472 14.4499 14.7722 14.4499 14.7019 14.4499C13.5625 14.4452 12.4185 14.4452 11.2791 14.4452Z" fill="#C32222" stroke="#C32222" stroke-width="0.3"/>
<path d="M11.2752 12.3494C10.1452 12.3494 9.01525 12.3494 7.88527 12.3494C7.83838 12.3494 7.7915 12.3494 7.74461 12.3494C7.57113 12.34 7.44922 12.2181 7.44922 12.0634C7.45391 11.9133 7.57113 11.7961 7.73523 11.7868C7.77743 11.7821 7.81494 11.7868 7.85714 11.7868C10.1405 11.7868 12.424 11.7868 14.7074 11.7868C14.7402 11.7868 14.7777 11.7868 14.8105 11.7868C14.9934 11.7961 15.1059 11.8993 15.1059 12.0634C15.1059 12.2369 14.9934 12.3447 14.8011 12.3494C14.7589 12.3494 14.7214 12.3494 14.6792 12.3494C13.5492 12.3494 12.4099 12.3494 11.2752 12.3494Z" fill="#C32222" stroke="#C32222" stroke-width="0.3"/>
<path d="M10.271 8.16689C9.44581 8.16689 8.62059 8.16689 7.79538 8.16689C7.56094 8.16689 7.4109 8.01217 7.45779 7.82931C7.49999 7.66989 7.60783 7.60425 7.77194 7.60425C8.37678 7.60894 8.97694 7.60425 9.58178 7.60425C10.6461 7.60425 11.7105 7.60425 12.7795 7.60425C12.9389 7.60425 13.0561 7.65114 13.103 7.81055C13.1593 8.00748 13.0186 8.16689 12.7889 8.16689C12.2544 8.17158 11.7245 8.16689 11.19 8.16689C10.8806 8.16689 10.5758 8.16689 10.271 8.16689Z" fill="#C32222" stroke="#C32222" stroke-width="0.3"/>
</g>
</g>
<defs>
<filter id="filter0_d_3919_30864" x="-4" y="-3" width="32" height="32" filterUnits="userSpaceOnUse" color-interpolation-filters="sRGB">
<feFlood flood-opacity="0" result="BackgroundImageFix"/>
<feColorMatrix in="SourceAlpha" type="matrix" values="0 0 0 0 0 0 0 0 0 0 0 0 0 0 0 0 0 0 127 0" result="hardAlpha"/>
<feOffset dy="1"/>
<feGaussianBlur stdDeviation="2"/>
<feComposite in2="hardAlpha" operator="out"/>
<feColorMatrix type="matrix" values="0 0 0 0 0.223529 0 0 0 0 0.384314 0 0 0 0 0.611765 0 0 0 0.4 0"/>
<feBlend mode="normal" in2="BackgroundImageFix" result="effect1_dropShadow_3919_30864"/>
<feBlend mode="normal" in="SourceGraphic" in2="effect1_dropShadow_3919_30864" result="shape"/>
</filter>
<clipPath id="clip0_3919_30864">
<rect width="14.4459" height="18" fill="white" transform="translate(5 3)"/>
</clipPath>
</defs>
</svg>
