<svg width="40" height="40" viewBox="0 0 40 40" fill="none" xmlns="http://www.w3.org/2000/svg">
<g clip-path="url(#clip0_4020_29220)">
<path d="M19.9908 39.18C30.5891 39.18 39.1808 30.5884 39.1808 19.99C39.1808 9.3917 30.5891 0.800049 19.9908 0.800049C9.39244 0.800049 0.800781 9.3917 0.800781 19.99C0.800781 30.5884 9.39244 39.18 19.9908 39.18Z" fill="#1E88E4"/>
<path d="M19.9903 7.82007C23.8003 7.86007 27.2803 8.89007 30.2503 11.3601C32.1403 12.9301 33.4703 14.8701 34.0003 17.2901C34.6503 20.2801 33.9503 22.9901 32.1103 25.4001C30.2603 27.8301 27.7603 29.3401 24.8603 30.1801C21.5403 31.1501 18.2103 31.1201 14.9003 30.1101C14.6703 30.0401 14.4903 30.0801 14.2903 30.1501C12.3503 30.7901 10.4103 31.4301 8.47031 32.0801C8.21031 32.1701 7.96031 32.2101 7.71031 32.1001C7.28031 31.9101 7.13031 31.4901 7.30031 30.9601C7.72031 29.6901 8.12031 28.4201 8.58031 27.1701C8.76031 26.6801 8.71031 26.3701 8.35031 25.9601C6.64031 24.0301 5.71031 21.7701 5.77031 19.1601C5.84031 16.3001 7.04031 13.9301 9.07031 11.9701C11.4203 9.70007 14.2903 8.49007 17.5003 8.00007C18.3203 7.87007 19.1503 7.82007 19.9903 7.82007ZM17.6703 19.3401C17.6703 20.6301 18.7103 21.6701 20.0003 21.6701C21.2803 21.6701 22.3103 20.6401 22.3203 19.3701C22.3303 18.0701 21.3003 17.0301 20.0103 17.0101C18.7303 17.0001 17.6703 18.0601 17.6703 19.3401ZM11.4403 19.3201C11.4303 20.6301 12.4403 21.6601 13.7403 21.6801C15.0303 21.7001 16.0903 20.6501 16.0903 19.3701C16.1003 18.0901 15.0403 17.0301 13.7603 17.0201C12.4903 17.0101 11.4503 18.0501 11.4403 19.3201ZM28.5503 19.3401C28.5503 18.0501 27.4903 17.0001 26.2103 17.0101C24.9403 17.0201 23.9003 18.0601 23.9003 19.3301C23.8903 20.6201 24.9403 21.6701 26.2303 21.6701C27.5203 21.6701 28.5503 20.6401 28.5503 19.3401Z" fill="#FDFEFE"/>
<path d="M17.6699 19.3401C17.6699 18.0501 18.7299 17.0001 20.0099 17.0101C21.2999 17.0201 22.3299 18.0701 22.3199 19.3701C22.3099 20.6401 21.2799 21.6701 19.9999 21.6701C18.7099 21.6801 17.6699 20.6401 17.6699 19.3401Z" fill="#2088E4"/>
<path d="M11.4395 19.32C11.4495 18.05 12.4895 17.02 13.7695 17.02C15.0495 17.02 16.0995 18.08 16.0995 19.37C16.0895 20.66 15.0295 21.7 13.7495 21.68C12.4395 21.66 11.4295 20.62 11.4395 19.32Z" fill="#2088E4"/>
<path d="M28.5506 19.3401C28.5506 20.6401 27.5206 21.6701 26.2206 21.6701C24.9306 21.6701 23.8906 20.6201 23.8906 19.3301C23.9006 18.0601 24.9406 17.0201 26.2006 17.0101C27.4906 17.0001 28.5506 18.0501 28.5506 19.3401Z" fill="#2088E4"/>
</g>
<defs>
<clipPath id="clip0_4020_29220">
<rect width="40" height="40" fill="white"/>
</clipPath>
</defs>
</svg>
