<svg width="24" height="25" viewBox="0 0 24 25" fill="none" xmlns="http://www.w3.org/2000/svg">
<g filter="url(#filter0_d_3919_30987)">
<g clip-path="url(#clip0_3919_30987)">
<path d="M6.72904 20.0001C6.57636 19.9257 6.40411 19.9218 6.2436 19.8748C5.8756 19.7613 5.80905 19.5186 6.07918 19.2484C6.455 18.8765 6.83083 18.5007 7.21057 18.1327C7.28887 18.0583 7.30452 17.98 7.32018 17.8782C7.36716 17.5376 7.26538 17.2714 6.98351 17.0757C6.97568 17.0718 6.96785 17.0639 6.96002 17.0522C6.74862 16.7468 6.45892 16.6372 6.09092 16.6881C6.00479 16.6999 5.93824 16.7234 5.8756 16.786C5.49978 17.1697 5.12395 17.5494 4.74421 17.9291C4.48192 18.1953 4.23528 18.1288 4.12566 17.7686C3.59716 15.9874 4.7403 14.1239 6.55679 13.8029C6.97959 13.7285 7.40631 13.7363 7.8252 13.8381C7.89175 13.8538 7.93482 13.8538 7.98962 13.8029C8.72953 13.0591 9.47335 12.3152 10.2367 11.5518C10.1937 11.5166 10.1467 11.4931 10.1115 11.454C8.9057 10.2482 7.70384 9.04242 6.50198 7.83273C6.42368 7.75443 6.34539 7.71528 6.23186 7.7192C6.04394 7.73094 5.85603 7.7192 5.67203 7.72311C5.52718 7.72703 5.4254 7.66439 5.35101 7.54303C4.92429 6.82661 4.48975 6.11019 4.06303 5.39377C3.96516 5.22935 3.98082 5.09233 4.11784 4.95531C4.39187 4.67736 4.66591 4.40332 4.94387 4.12928C5.09263 3.98443 5.21399 3.96877 5.39408 4.07447C6.10658 4.50119 6.81517 4.92791 7.52767 5.35463C7.66078 5.43292 7.72341 5.55037 7.7195 5.70305C7.71558 5.89488 7.72341 6.0867 7.71558 6.27853C7.71167 6.36857 7.74299 6.43121 7.80563 6.49385C9.02314 7.71137 10.2367 8.92889 11.4504 10.1464C11.5208 10.2208 11.5561 10.2325 11.6383 10.1542C12.3429 9.44173 13.0554 8.73314 13.7679 8.02456C13.8306 7.96192 13.8502 7.9032 13.8267 7.81707C13.49 6.43513 14.1947 5.0062 15.4044 4.36808C16.1873 3.95702 17.0055 3.89439 17.8472 4.1606C18.1017 4.24281 18.1565 4.5051 17.9647 4.70476C17.5849 5.09625 17.2013 5.48382 16.8137 5.87139C16.7393 5.94577 16.7197 6.02407 16.7041 6.12977C16.6571 6.47427 16.7589 6.74831 17.0408 6.95189C17.0564 6.96363 17.0721 6.97929 17.0838 6.99495C17.2678 7.26507 17.5184 7.35903 17.8433 7.31988C17.9686 7.30422 18.0625 7.27682 18.1526 7.18678C18.5127 6.81095 18.8807 6.44687 19.2487 6.07887C19.5071 5.82049 19.7538 5.88313 19.8595 6.23155C19.8869 6.32159 19.8908 6.42338 19.9456 6.50168C19.9456 6.9284 19.9456 7.35512 19.9456 7.78183C19.8947 7.8249 19.8986 7.89145 19.8829 7.95017C19.7577 8.40821 19.5463 8.82319 19.2292 9.17161C18.407 10.0799 17.3931 10.4126 16.1912 10.1777C16.0934 10.1582 16.0307 10.1738 15.9603 10.2443C15.5609 10.6514 15.1538 11.0547 14.7506 11.4579C14.5705 11.638 14.3904 11.8141 14.2025 11.9981C14.2886 12.0764 14.3669 12.1469 14.4413 12.2174C14.5118 12.28 14.5744 12.3818 14.6527 12.3935C14.7388 12.4092 14.7858 12.2878 14.8563 12.2291C14.9581 12.1469 15.0677 12.1156 15.189 12.1626C15.3026 12.2095 15.373 12.2996 15.3848 12.4248C15.4004 12.558 15.33 12.6558 15.2321 12.7341C15.1303 12.8163 15.1381 12.8672 15.236 12.9534C16.5318 14.1356 17.8198 15.3297 19.1235 16.508C19.4875 16.8369 19.8007 17.1853 19.9417 17.6668C19.9417 17.9879 19.9417 18.3128 19.9417 18.6338C19.8947 18.6573 19.8947 18.7121 19.879 18.7512C19.6598 19.3346 19.2566 19.726 18.6654 19.9179C18.5597 19.9531 18.454 19.9766 18.3483 20.004C18.1604 20.004 17.9725 20.004 17.7885 20.004C17.7728 19.9492 17.718 19.9609 17.6867 19.9531C17.2952 19.8631 16.9742 19.6556 16.7002 19.362C15.4748 18.0309 14.2534 16.7038 13.028 15.3727C12.9654 15.3023 12.9106 15.2005 12.8323 15.177C12.7383 15.1457 12.7031 15.2866 12.6248 15.3297C12.617 15.3336 12.6091 15.3414 12.6013 15.3492C12.4721 15.4354 12.3116 15.4236 12.202 15.3179C12.0963 15.2122 12.0806 15.0635 12.1668 14.9343C12.2059 14.8755 12.2568 14.8207 12.3116 14.7698C12.3782 14.7111 12.3977 14.672 12.3194 14.6015C12.2255 14.5154 12.1355 14.4175 12.0572 14.3157C11.9906 14.2335 11.9515 14.2453 11.8849 14.3157C11.3368 14.8677 10.7848 15.4197 10.2328 15.9678C10.1585 16.0422 10.135 16.1087 10.1624 16.2144C10.2602 16.6137 10.2798 17.017 10.1937 17.4202C9.92748 18.6651 9.19931 19.5029 7.97005 19.8826C7.79388 19.9375 7.6138 19.9649 7.43371 20.0079C7.20665 20.0001 6.96785 20.0001 6.72904 20.0001ZM4.64243 17.1227C4.95561 16.8134 5.26489 16.5159 5.56633 16.2105C5.6642 16.1126 5.7699 16.0617 5.91084 16.0657C6.16139 16.0735 6.40802 16.0696 6.65857 16.0657C6.79168 16.0617 6.89738 16.1048 6.99134 16.1988C7.25755 16.4689 7.52767 16.7351 7.7978 17.0013C7.89175 17.0953 7.93873 17.2049 7.93873 17.3341C7.93873 17.5846 7.93873 17.8313 7.93873 18.0818C7.93873 18.2188 7.88784 18.3284 7.78997 18.4263C7.51984 18.6925 7.24972 18.9587 6.98351 19.2289C6.94827 19.2641 6.89738 19.2876 6.88955 19.3463C7.25363 19.4285 7.89958 19.3072 8.31456 19.0723C9.36374 18.4811 9.84526 17.338 9.52033 16.1792C9.46552 15.9835 9.4851 15.8347 9.63386 15.6859C11.6539 13.6698 13.6701 11.6536 15.6862 9.63356C15.8272 9.49262 15.972 9.46131 16.1638 9.51611C17.4792 9.89585 18.8103 9.1951 19.2487 7.89537C19.3623 7.56652 19.3936 7.22593 19.3505 6.8775C19.0373 7.18286 18.732 7.48039 18.4344 7.78183C18.3327 7.88362 18.223 7.93843 18.0743 7.93451C17.8316 7.92668 17.5849 7.92668 17.3422 7.93451C17.1974 7.93843 17.0838 7.88754 16.982 7.78183C16.7315 7.51954 16.4809 7.25724 16.2265 6.99495C16.1325 6.90099 16.0855 6.79138 16.0895 6.66219C16.0895 6.41164 16.0895 6.165 16.0895 5.91445C16.0895 5.78135 16.1325 5.67173 16.2265 5.58169C16.3792 5.43292 16.5279 5.28024 16.6767 5.12756C16.8294 4.97489 16.9781 4.81829 17.1504 4.64604C16.8215 4.60689 16.5279 4.63429 16.2421 4.71259C14.8602 5.10016 14.0968 6.44687 14.4844 7.83273C14.5431 8.04022 14.5 8.18506 14.3513 8.33383C12.339 10.3343 10.3307 12.3426 8.33022 14.351C8.18145 14.5036 8.03269 14.5389 7.82911 14.4841C6.75645 14.1904 5.7425 14.5428 5.08872 15.4315C4.72072 15.9326 4.5837 16.5002 4.64243 17.1227ZM19.3701 18.1405C19.3623 18.0113 19.3544 17.8939 19.3192 17.7765C19.2527 17.5533 19.1313 17.3615 18.963 17.201C17.5732 15.9247 16.1834 14.6485 14.7936 13.3762C14.7349 13.3214 14.6997 13.2665 14.6096 13.3566C14.1947 13.7833 13.7679 14.2061 13.3451 14.625C13.2786 14.6915 13.2942 14.7268 13.3491 14.7855C14.637 16.1792 15.9172 17.5768 17.2052 18.9705C17.5614 19.3581 18.1095 19.4755 18.591 19.2837C19.053 19.0997 19.3662 18.6299 19.3701 18.1405ZM7.09312 6.21981C7.09312 6.11411 7.08921 6.01232 7.09312 5.90662C7.09704 5.84007 7.06963 5.80483 7.01483 5.77352C6.45109 5.43684 5.88343 5.09625 5.32361 4.75565C5.25314 4.71259 5.21791 4.73216 5.16702 4.78306C5.04174 4.91616 4.91646 5.04535 4.77945 5.16671C4.70898 5.22935 4.71681 5.27633 4.75987 5.35071C5.01042 5.76177 5.25706 6.17675 5.50369 6.59172C5.60156 6.75614 5.6642 6.97538 5.80905 7.06933C5.96173 7.1672 6.19271 7.09674 6.38845 7.09674C6.56853 7.09282 6.70164 7.15546 6.83083 7.28073C7.98962 8.45127 9.15625 9.61399 10.319 10.7806C10.4325 10.8941 10.5343 11.0938 10.6674 11.0899C10.7809 11.0899 10.8827 10.8863 11.0041 10.7884C11.1019 10.7062 11.0824 10.6553 11.0001 10.5731C9.79829 9.37126 8.60034 8.16549 7.39457 6.97146C7.17925 6.75223 7.02266 6.54083 7.09312 6.21981ZM14.2182 12.8594C14.2025 12.8398 14.1947 12.8281 14.1829 12.8163C14.0616 12.7028 13.9363 12.5932 13.8188 12.4797C13.764 12.4288 13.7366 12.4718 13.7053 12.5031C13.2982 12.9103 12.891 13.3174 12.4839 13.7207C12.4369 13.7676 12.4369 13.795 12.4839 13.842C12.5896 13.9477 12.6914 14.0613 12.7892 14.1748C12.8323 14.2218 12.8597 14.2335 12.9106 14.1787C13.3295 13.7559 13.7523 13.3331 14.1751 12.9142C14.1868 12.8985 14.2025 12.879 14.2182 12.8594Z" fill="#C32222" stroke="#C32222" stroke-width="0.3"/>
<path d="M10.0468 14.2649C9.81581 14.2649 9.66313 14.0143 9.77666 13.8107C9.80798 13.752 9.85887 13.7011 9.90585 13.6542C11.1547 12.4053 12.4035 11.1526 13.6524 9.90373C13.6915 9.86458 13.7346 9.82151 13.7816 9.79019C13.9068 9.70407 14.0634 9.71581 14.1691 9.8176C14.2787 9.91939 14.2983 10.0838 14.2083 10.213C14.177 10.26 14.1378 10.303 14.0947 10.3422C12.8459 11.5949 11.5971 12.8477 10.3482 14.0965C10.2621 14.1827 10.1799 14.2688 10.0468 14.2649Z" fill="#C32222" stroke="#C32222" stroke-width="0.3"/>
<path d="M14.8327 8.85449C15.0011 8.85449 15.142 8.99151 15.1459 9.15594C15.1498 9.32036 15.0128 9.46521 14.8445 9.46912C14.6722 9.47304 14.5234 9.3321 14.5234 9.15985C14.5274 8.99934 14.6683 8.85841 14.8327 8.85449Z" fill="#C32222" stroke="#C32222" stroke-width="0.3"/>
<path d="M9.47042 14.8364C9.47433 15.0008 9.3334 15.1456 9.16898 15.1495C9.00064 15.1535 8.8597 15.0243 8.85187 14.8559C8.84404 14.6837 8.98498 14.5388 9.16115 14.5349C9.32557 14.5349 9.46651 14.668 9.47042 14.8364Z" fill="#C32222" stroke="#C32222" stroke-width="0.3"/>
<path d="M18.2063 17.9134C18.1946 18.1522 17.9479 18.2853 17.7522 18.1718C17.6974 18.1404 17.6504 18.0974 17.6074 18.0543C16.7187 17.1696 15.8339 16.2887 14.9453 15.404C14.9139 15.3766 14.8865 15.3452 14.8591 15.3139C14.7417 15.1691 14.7456 14.9968 14.867 14.8794C14.9805 14.7658 15.1527 14.7658 15.2937 14.8715C15.3211 14.895 15.3485 14.9185 15.372 14.9459C16.2646 15.8385 17.1611 16.7272 18.0536 17.6198C18.1398 17.702 18.222 17.792 18.2063 17.9134Z" fill="#C32222" stroke="#C32222" stroke-width="0.3"/>
</g>
</g>
<defs>
<filter id="filter0_d_3919_30987" x="-4" y="-3" width="32" height="32" filterUnits="userSpaceOnUse" color-interpolation-filters="sRGB">
<feFlood flood-opacity="0" result="BackgroundImageFix"/>
<feColorMatrix in="SourceAlpha" type="matrix" values="0 0 0 0 0 0 0 0 0 0 0 0 0 0 0 0 0 0 127 0" result="hardAlpha"/>
<feOffset dy="1"/>
<feGaussianBlur stdDeviation="2"/>
<feComposite in2="hardAlpha" operator="out"/>
<feColorMatrix type="matrix" values="0 0 0 0 0.223529 0 0 0 0 0.384314 0 0 0 0 0.611765 0 0 0 0.4 0"/>
<feBlend mode="normal" in2="BackgroundImageFix" result="effect1_dropShadow_3919_30987"/>
<feBlend mode="normal" in="SourceGraphic" in2="effect1_dropShadow_3919_30987" result="shape"/>
</filter>
<clipPath id="clip0_3919_30987">
<rect width="15.953" height="16" fill="white" transform="translate(4 4)"/>
</clipPath>
</defs>
</svg>
