<svg width="32" height="33" viewBox="0 0 32 33" fill="none" xmlns="http://www.w3.org/2000/svg">
<path d="M27.64 16.82C27.64 23.348 22.348 28.64 15.82 28.64C9.29199 28.64 4 23.348 4 16.82C4 10.292 9.29199 5 15.82 5C22.348 5 27.64 10.292 27.64 16.82ZM6.14816 16.82C6.14816 22.1616 10.4784 26.4918 15.82 26.4918C21.1616 26.4918 25.4918 22.1616 25.4918 16.82C25.4918 11.4784 21.1616 7.14816 15.82 7.14816C10.4784 7.14816 6.14816 11.4784 6.14816 16.82Z" fill="#FF9626" stroke="#FF9626" stroke-width="0.2"/>
<path d="M11 17.6179L12.9452 20.3897C13.3225 20.9273 14.1068 20.9614 14.5294 20.4585L21.6364 12" stroke="#FF9626" stroke-width="2.5" stroke-linecap="round"/>
</svg>
