<svg width="32" height="33" viewBox="0 0 32 33" fill="none" xmlns="http://www.w3.org/2000/svg">
<path d="M4.18183 16.0116C4.14479 9.48321 9.49712 4.18644 16.0023 4.18181C22.5029 4.17718 27.8321 9.4971 27.8182 15.993C27.8043 22.5399 22.5353 27.8089 15.9977 27.8182C9.48323 27.8274 4.14942 22.4936 4.18183 16.0116ZM23.8178 22.0908C26.8505 18.3451 26.8505 12.1594 22.3547 8.37663C18.2664 4.93188 12.8122 5.71435 9.95549 8.16827C14.5716 12.8076 19.1878 17.4422 23.8178 22.0908ZM8.17293 9.9138C5.20507 13.5669 5.12636 19.5767 9.36748 23.3918C13.4558 27.0681 19.0304 26.3782 22.0353 23.841C17.4191 19.2017 12.803 14.567 8.17293 9.9138Z" fill="#FF9626" stroke="#FF9626" stroke-width="0.2"/>
</svg>
