<svg width="40" height="40" viewBox="0 0 40 40" fill="none" xmlns="http://www.w3.org/2000/svg">
<g clip-path="url(#clip0_4020_29231)">
<path d="M18.4908 0.800049C19.4908 0.800049 20.4908 0.800049 21.4908 0.800049C21.5308 0.890049 21.6108 0.870049 21.6808 0.870049C24.5808 1.13005 27.3108 1.97005 29.7908 3.50005C34.9108 6.65005 37.9808 11.2 38.9608 17.15C39.0308 17.6 39.0108 18.06 39.1708 18.5C39.1708 19.5 39.1708 20.5 39.1708 21.5C39.0308 21.85 39.0508 22.23 39.0008 22.59C38.3408 27.12 36.3608 30.9601 33.0108 34.07C30.1208 36.7601 26.7008 38.4 22.7808 38.99C22.3208 39.06 21.8408 39.0401 21.3908 39.2001C20.4208 39.2001 19.4408 39.2001 18.4708 39.2001C18.1208 39.0601 17.7408 39.08 17.3808 39.03C13.2008 38.43 9.57078 36.6701 6.55078 33.71C3.52078 30.7001 1.66078 27.07 1.01078 22.84C0.940781 22.42 0.970781 21.98 0.800781 21.57C0.800781 20.55 0.800781 19.52 0.800781 18.5C0.880781 18.46 0.870781 18.38 0.870781 18.3C0.940781 17.48 1.07078 16.67 1.24078 15.86C2.85078 8.23005 9.40078 2.11005 17.1108 1.01005C17.5708 0.950049 18.0508 0.970049 18.4908 0.800049ZM30.1108 16.01C29.9308 16.09 29.8108 16.15 29.6908 16.21C26.5708 17.73 23.4508 19.25 20.3408 20.7801C20.0708 20.91 19.8708 20.9 19.6108 20.77C16.5208 19.22 13.4308 17.68 10.3408 16.14C10.2008 16.07 10.0708 15.96 9.87078 15.97C9.87078 16.08 9.87078 16.19 9.87078 16.3C9.87078 19.46 9.87078 22.62 9.87078 25.7801C9.87078 27.0301 10.6708 27.84 11.9308 27.84C17.3008 27.84 22.6708 27.84 28.0508 27.84C29.3108 27.84 30.1108 27.03 30.1108 25.77C30.1108 24.1 30.1108 22.42 30.1108 20.75C30.1108 19.19 30.1108 17.6301 30.1108 16.01ZM20.0108 12.14C17.3108 12.14 14.6208 12.14 11.9208 12.14C10.8808 12.14 10.1408 12.72 9.91078 13.66C9.85078 13.89 9.89078 14.02 10.1208 14.13C13.3308 15.72 16.5308 17.32 19.7308 18.92C19.9308 19.02 20.0908 19.01 20.2908 18.91C23.4708 17.35 26.6508 15.8 29.8408 14.25C30.1008 14.12 30.1408 13.98 30.0908 13.73C29.8908 12.76 29.1308 12.14 28.0708 12.14C25.3808 12.14 22.6908 12.14 20.0108 12.14Z" fill="#2196F2"/>
<path d="M30.1091 16.01C30.1091 17.63 30.1091 19.19 30.1091 20.76C30.1091 22.43 30.1091 24.11 30.1091 25.78C30.1091 27.03 29.3091 27.85 28.0491 27.85C22.6791 27.85 17.3091 27.85 11.9291 27.85C10.6691 27.85 9.86914 27.04 9.86914 25.79C9.86914 22.63 9.86914 19.47 9.86914 16.31C9.86914 16.2 9.86914 16.09 9.86914 15.98C10.0691 15.96 10.1991 16.08 10.3391 16.15C13.4291 17.69 16.5291 19.23 19.6091 20.78C19.8691 20.91 20.0691 20.93 20.3391 20.79C23.4491 19.26 26.5691 17.74 29.6891 16.22C29.8091 16.15 29.9391 16.09 30.1091 16.01Z" fill="#FDFEFE"/>
<path d="M20.01 12.1399C22.69 12.1399 25.38 12.1399 28.06 12.1399C29.12 12.1399 29.88 12.7599 30.08 13.7299C30.13 13.9799 30.09 14.1299 29.83 14.2499C26.64 15.7899 23.46 17.3499 20.28 18.9099C20.08 19.0099 19.93 19.0199 19.72 18.9199C16.52 17.3199 13.32 15.7199 10.11 14.1299C9.87996 14.0199 9.83996 13.8899 9.89996 13.6599C10.13 12.7199 10.87 12.1399 11.91 12.1399C14.62 12.1399 17.31 12.1399 20.01 12.1399Z" fill="#FCFDFE"/>
</g>
<defs>
<clipPath id="clip0_4020_29231">
<rect width="40" height="40" fill="white"/>
</clipPath>
</defs>
</svg>
