<svg width="29" height="28" viewBox="0 0 29 28" fill="none" xmlns="http://www.w3.org/2000/svg">
<rect x="1.125" y="0.5" width="27" height="27" rx="13.5" stroke="#666666"/>
<path d="M14.625 8C15.1773 8 15.625 8.44772 15.625 9V13H19.625C20.1773 13 20.625 13.4477 20.625 14C20.625 14.5523 20.1773 15 19.625 15H15.625V19C15.625 19.5523 15.1773 20 14.625 20C14.0727 20 13.625 19.5523 13.625 19V15H9.625C9.07272 15 8.625 14.5523 8.625 14C8.625 13.4477 9.07272 13 9.625 13H13.625V9C13.625 8.44772 14.0727 8 14.625 8Z" fill="#666666"/>
</svg>
