<svg width="40" height="40" viewBox="0 0 40 40" fill="none" xmlns="http://www.w3.org/2000/svg">
<path d="M33.8428 5.72139C30.1101 1.99005 25.3821 0 19.9075 0C9.20723 0 0.248844 8.95522 0.248844 19.6517C0.248844 23.1343 1.24422 26.6169 2.98613 29.602L0 39.801L10.4514 37.0647C13.4376 38.5572 16.6726 39.5522 19.9075 39.5522C30.8567 39.5522 39.5662 30.597 39.5662 19.9005C39.815 14.4279 37.5755 9.45274 33.8428 5.72139ZM29.6124 26.8657C29.1148 28.1095 27.124 29.1045 26.3775 29.1045C25.6309 29.3532 23.1425 29.1045 20.4052 27.8607C15.4283 25.6219 12.1934 20.6468 11.9445 20.398C11.6957 20.1493 9.95376 17.6617 9.95376 15.4229C9.95376 13.1841 11.198 11.6915 11.6957 11.194C12.691 10.199 14.6818 10.4478 15.1795 11.4428C15.4283 12.4378 16.4237 14.9254 16.6726 15.1741C16.9214 15.4229 16.9214 16.4179 16.1749 16.9154C15.926 16.9154 14.6818 17.9104 15.1795 18.6567C15.4283 19.1542 16.4237 20.6468 17.9168 22.1393C19.9075 23.8806 21.4006 24.3781 21.8983 24.6269C22.396 24.8756 22.6448 24.8756 22.8937 24.3781C23.1425 24.1294 24.1379 22.8856 24.3867 22.3881C24.6356 21.8905 25.1332 21.8905 25.3821 22.1393C25.6309 22.3881 28.3682 23.3831 28.8659 23.6318C29.3636 24.1294 29.8613 24.1294 29.8613 24.3781C30.1101 24.6269 30.1101 25.6219 29.6124 26.8657Z" fill="#70CC33"/>
</svg>
