<svg width="71" height="68" viewBox="0 0 71 68" fill="none" xmlns="http://www.w3.org/2000/svg">
<g clip-path="url(#clip0_3549_23600)">
<path d="M62.2934 58.68C61.123 62.2976 58.8709 64.1064 55.6966 63.9823C53.2494 63.8936 50.412 62.2799 49.6495 58.6977C42.8753 58.6977 36.1011 58.6977 29.2737 58.6977C28.9013 60.4711 28.0147 61.9075 26.4718 62.936C25.3369 63.6985 24.0601 64.0355 22.6946 63.9823C19.8041 63.8759 17.7115 62.0493 16.6298 58.6622C15.3352 58.6622 14.0407 58.6445 12.7284 58.68C12.0546 58.6977 11.6112 58.4672 11.2388 57.8997C9.96201 55.9313 8.632 53.9983 7.3552 52.0299C7.16013 51.7107 7.03599 51.3029 7.01826 50.9305C6.98279 48.962 7.00053 46.9936 7.00053 45.0075C7.00053 43.0213 8.34827 41.6559 10.3344 41.6559C11.6467 41.6559 12.959 41.6204 14.2535 41.6736C14.8564 41.6913 15.3352 41.514 15.814 41.1416C19.9459 38.0205 24.5034 35.7861 29.6107 34.7398C34.8598 33.6581 39.9138 34.3142 44.8437 36.2649C48.0712 37.5417 51.0681 39.2441 53.8346 41.3721C54.0651 41.5495 54.4375 41.6559 54.739 41.6559C56.7783 41.6736 58.8176 41.6204 60.8038 42.2056C66.6026 43.8548 70.7345 49.2103 70.8232 55.2397C70.8409 55.9668 70.8409 56.6938 70.8232 57.4386C70.8055 58.3076 70.4331 58.6977 69.5641 58.6977C67.3652 58.6977 65.184 58.6977 62.985 58.6977C62.7545 58.68 62.5239 58.68 62.2934 58.68ZM27.2167 57.5982C27.2167 55.2574 25.2837 53.3422 22.9252 53.3599C20.6198 53.3777 18.7223 55.2752 18.7046 57.5982C18.7046 59.9568 20.6021 61.872 22.9606 61.872C25.3192 61.872 27.2167 59.9568 27.2167 57.5982ZM55.9626 53.3599C53.604 53.3422 51.6888 55.2574 51.6888 57.616C51.6888 59.939 53.5863 61.8543 55.8916 61.872C58.2502 61.8897 60.1831 59.9922 60.2009 57.6514C60.2186 55.2929 58.3211 53.3777 55.9626 53.3599ZM35.7642 41.6027C40.6586 41.6027 45.4998 41.6027 50.4297 41.6027C45.5176 38.251 39.2222 36.3358 35.7642 36.4777C35.7642 38.1624 35.7642 39.8648 35.7642 41.6027ZM33.5652 36.4422C29.4688 36.4245 20.5843 39.6165 19.0415 41.6204C23.865 41.6204 28.7063 41.6204 33.5652 41.6204C33.5652 39.8648 33.5652 38.1624 33.5652 36.4422ZM61.3003 46.9759C61.2649 47.0291 61.2117 47.0823 61.1762 47.1178C61.4599 47.4192 61.7259 47.969 62.0274 47.9867C63.3042 48.0931 64.5988 48.0222 65.8756 48.0222C65.911 47.9512 65.9465 47.8626 65.9642 47.7916C65.5209 47.5256 65.113 47.0468 64.652 47.0114C63.5525 46.905 62.4175 46.9759 61.3003 46.9759ZM12.3738 47.0114C11.2743 47.0114 10.228 47.0114 9.19947 47.0114C9.19947 47.366 9.19947 47.6852 9.19947 48.0399C9.76694 48.0399 10.3167 47.9867 10.831 48.0576C11.6467 48.1818 12.09 47.7916 12.3738 47.0114Z" fill="#39629C"/>
<path d="M64.4568 23.6209C64.4568 25.3943 64.4745 27.1322 64.4568 28.8523C64.4568 29.5262 64.0312 29.9163 63.375 29.9518C63.2154 29.9695 63.0736 29.9518 62.914 29.9518C55.4482 29.9518 47.9824 29.9518 40.4989 29.9518C39.2221 29.9518 38.9384 29.6503 38.9384 28.3912C38.9384 25.483 38.9384 22.5924 38.9384 19.6841C38.9384 18.5847 39.2753 18.2477 40.357 18.2477C42.6801 18.2477 45.0032 18.2477 47.3972 18.2477C47.3972 12.9454 47.3972 7.66085 47.3972 2.34082C42.1304 2.34082 36.8458 2.34082 31.4903 2.34082C31.4903 2.60682 31.4903 2.87282 31.4903 3.12109C31.4903 10.1258 31.4903 17.1305 31.4903 24.1352C31.4903 25.412 31.1888 25.6958 29.9298 25.6958C27.9968 25.6958 26.0816 25.6958 24.0423 25.6958C24.0423 25.944 24.0423 26.1923 24.0423 26.4228C24.0423 28.2139 24.0423 30.005 24.0423 31.8138C24.0423 32.7714 23.6699 33.1438 22.73 33.1615C20.07 33.1615 17.4099 33.1615 14.7499 33.1615C13.7923 33.1615 13.4199 32.7891 13.4199 31.8493C13.4199 29.1183 13.4199 26.4051 13.4199 23.6387C14.1293 23.6387 14.8031 23.6387 15.5302 23.6387C15.5302 26.0859 15.5302 28.5154 15.5302 30.9981C17.6759 30.9981 19.7685 30.9981 21.932 30.9981C21.932 30.5193 21.932 30.0405 21.932 29.5617C21.932 28.0543 21.932 26.547 21.932 25.0396C21.932 23.9401 22.2689 23.6032 23.3506 23.6032C25.124 23.6032 26.8973 23.6032 28.6707 23.6032C28.8835 23.6032 29.0963 23.6032 29.38 23.6032C29.38 23.284 29.38 23.018 29.38 22.7697C29.38 15.765 29.38 8.76032 29.38 1.75561C29.38 0.496537 29.6815 0.195068 30.9583 0.195068C36.6685 0.195068 42.3964 0.195068 48.1065 0.195068C49.2769 0.195068 49.5961 0.51427 49.5961 1.70241C49.5961 7.44805 49.5961 13.1759 49.5961 18.9216C49.5961 20.092 49.2769 20.4112 48.0888 20.4112C45.7835 20.4112 43.4781 20.4112 41.1373 20.4112C41.1373 22.8939 41.1373 25.3411 41.1373 27.8238C48.1952 27.8238 55.2531 27.8238 62.3465 27.8238C62.3465 26.4406 62.3465 25.0751 62.3465 23.6564C63.0381 23.6209 63.712 23.6209 64.4568 23.6209Z" fill="#39629C"/>
<path d="M14.183 0.159607C19.4321 0.17734 22.961 4.85897 21.5601 9.647C21.0635 11.3317 20.3187 12.9809 19.4675 14.506C18.2617 16.6694 16.843 18.7088 15.4775 20.7659C14.8746 21.688 14.0943 21.6703 13.4559 20.7659C11.1506 17.5561 8.96934 14.2754 7.6216 10.5337C6.22065 6.73871 7.462 3.08563 10.7427 1.15268C11.8954 0.478809 13.1544 0.17734 14.183 0.159607ZM17.641 7.58992C17.6233 5.83431 16.1691 4.3979 14.3958 4.41563C12.6756 4.43337 11.257 5.90524 11.2747 7.62539C11.2924 9.36326 12.7111 10.7819 14.449 10.7997C16.2046 10.7997 17.6587 9.34553 17.641 7.58992Z" fill="#39629C"/>
<path d="M63.3929 0.159606C68.3583 0.159606 71.8872 4.84124 70.504 9.68247C69.706 12.5198 68.2164 15.038 66.6381 17.5029C65.8933 18.6556 65.113 19.7905 64.315 20.89C63.8008 21.6171 63.0028 21.6171 62.4885 20.89C60.1477 17.6625 57.9842 14.3286 56.5478 10.5514C54.8276 6.02938 57.1685 2.21669 60.2541 0.851211C61.2294 0.425608 62.3112 0.248274 63.3397 -0.0354614C63.3574 0.0532058 63.3752 0.106406 63.3929 0.159606ZM66.5849 7.62539C66.6027 5.85204 65.1662 4.41563 63.3929 4.41563C61.6728 4.41563 60.2186 5.85204 60.2186 7.57219C60.2186 9.34553 61.655 10.7819 63.4106 10.7819C65.1485 10.7997 66.5672 9.36326 66.5849 7.62539Z" fill="#39629C"/>
</g>
<g clip-path="url(#clip1_3549_23600)">
<g filter="url(#filter0_d_3549_23600)">
<path d="M12.5809 42C12.8621 42 13.1434 42 13.4246 42C13.5559 42.0188 13.6871 42.0375 13.8184 42.0562C14.2746 42.1125 14.7371 42.1375 15.1871 42.2188C17.5684 42.6687 19.6371 43.7312 21.3684 45.425C23.2934 47.3125 24.4621 49.5875 24.8621 52.2625C24.9184 52.625 24.9559 52.9875 25.0059 53.35C25.0059 53.7875 25.0059 54.225 25.0059 54.6625C24.9559 55.0875 24.9184 55.5125 24.8434 55.9312C24.3871 58.6313 23.1621 60.925 21.1621 62.7875C19.3496 64.475 17.2059 65.5062 14.7496 65.8625C14.3871 65.9125 14.0246 65.9562 13.6621 66C13.2246 66 12.7871 66 12.3496 66C12.2746 65.9875 12.1996 65.9625 12.1246 65.9562C11.5934 65.8812 11.0496 65.8438 10.5309 65.725C7.42461 65.05 4.96211 63.3938 3.13711 60.7938C1.98711 59.15 1.31211 57.325 1.10586 55.325C1.07461 55.0375 1.04336 54.7563 1.00586 54.4688C1.00586 54.1562 1.00586 53.8438 1.00586 53.5312C1.02461 53.425 1.04336 53.3187 1.05586 53.2125C1.12461 52.675 1.15586 52.125 1.26836 51.5938C1.88711 48.6625 3.39961 46.275 5.78086 44.4562C7.52461 43.125 9.49336 42.3438 11.6746 42.1063C11.9746 42.0688 12.2746 42.0312 12.5809 42ZM10.7434 55.9875C10.6496 55.8688 10.6059 55.7875 10.5434 55.7312C9.78086 54.9688 9.01836 54.2063 8.25586 53.4438C7.87461 53.0625 7.40586 52.9187 6.88086 53.0312C6.31836 53.15 5.93711 53.5063 5.77461 54.0625C5.61211 54.6125 5.74336 55.1187 6.14961 55.525C7.28711 56.6687 8.42461 57.8 9.56211 58.9375C10.3121 59.6875 11.1559 59.6875 11.8996 58.9438C14.4934 56.35 17.0934 53.75 19.6871 51.1562C19.7809 51.0625 19.8746 50.9688 19.9559 50.8625C20.5434 50.0875 20.2371 48.95 19.3309 48.6C18.7059 48.3625 18.1559 48.5062 17.6809 48.9812C15.4371 51.225 13.1996 53.4688 10.9559 55.7125C10.9059 55.7812 10.8496 55.8562 10.7434 55.9875Z" fill="#24E51A"/>
</g>
<path d="M10.7428 55.9875C10.8491 55.8562 10.8991 55.775 10.9678 55.7125C13.2116 53.4687 15.4553 51.225 17.6928 48.9812C18.1678 48.5062 18.7178 48.3625 19.3428 48.6C20.2491 48.95 20.5553 50.0875 19.9678 50.8625C19.8866 50.9687 19.7928 51.0625 19.6991 51.1562C17.1053 53.75 14.5053 56.35 11.9116 58.9437C11.1678 59.6875 10.3241 59.6875 9.57407 58.9375C8.43657 57.8 7.29282 56.6625 6.16157 55.525C5.75532 55.1125 5.62407 54.6125 5.78657 54.0625C5.94907 53.5125 6.33032 53.1562 6.89282 53.0312C7.41782 52.9187 7.88032 53.0625 8.26782 53.4437C9.03032 54.2062 9.79282 54.9687 10.5553 55.7312C10.6116 55.7937 10.6553 55.8687 10.7428 55.9875Z" fill="white"/>
</g>
<defs>
<filter id="filter0_d_3549_23600" x="0.00585938" y="41.5" width="26" height="26" filterUnits="userSpaceOnUse" color-interpolation-filters="sRGB">
<feFlood flood-opacity="0" result="BackgroundImageFix"/>
<feColorMatrix in="SourceAlpha" type="matrix" values="0 0 0 0 0 0 0 0 0 0 0 0 0 0 0 0 0 0 127 0" result="hardAlpha"/>
<feOffset dy="0.5"/>
<feGaussianBlur stdDeviation="0.5"/>
<feComposite in2="hardAlpha" operator="out"/>
<feColorMatrix type="matrix" values="0 0 0 0 0 0 0 0 0 0 0 0 0 0 0 0 0 0 0.25 0"/>
<feBlend mode="normal" in2="BackgroundImageFix" result="effect1_dropShadow_3549_23600"/>
<feBlend mode="normal" in="SourceGraphic" in2="effect1_dropShadow_3549_23600" result="shape"/>
</filter>
<clipPath id="clip0_3549_23600">
<rect width="63.8581" height="64" fill="white" transform="translate(7)"/>
</clipPath>
<clipPath id="clip1_3549_23600">
<rect width="27" height="27" fill="white" transform="translate(0 41)"/>
</clipPath>
</defs>
</svg>
