<svg width="73" height="69" viewBox="0 0 73 69" fill="none" xmlns="http://www.w3.org/2000/svg">
<g clip-path="url(#clip0_3549_30741)">
<path d="M19.0117 57.5136C19.0117 53.1592 19.0117 48.8335 19.0117 44.3773C19.4362 44.3773 19.8626 44.433 20.2718 44.3658C21.3973 44.1833 22.5383 44.0335 23.6274 43.7146C24.6454 43.4169 25.3273 42.6774 25.842 41.7016C26.8505 39.7828 28.5811 38.9299 30.6882 38.709C34.1014 38.3537 37.1613 39.2834 40.0232 41.1062C40.5534 41.4443 41.2698 41.5845 41.9133 41.6363C43.0082 41.7228 44.1164 41.6344 45.2171 41.6728C46.6653 41.7247 47.8466 42.8138 48.0118 44.1891C48.1847 45.6258 47.3607 46.6093 45.9143 46.688C45.6992 46.6995 45.4841 46.6938 45.267 46.6938C41.9364 46.6938 38.6057 46.6976 35.277 46.6899C34.7526 46.688 34.2513 46.7591 34.2474 47.3968C34.2436 48.0287 34.7449 48.1344 35.2674 48.1305C40.394 48.0998 45.5263 48.1978 50.6433 47.9807C52.76 47.8904 54.8671 47.1989 56.9435 46.6496C60.3875 45.7411 63.8065 44.7288 67.2332 43.755C67.9899 43.5398 68.7295 43.4534 69.4632 43.8433C70.8577 44.5847 71.2092 46.2654 70.1297 47.4102C69.6822 47.8866 69.1079 48.2976 68.5163 48.5723C63.7104 50.7985 59.0852 53.3551 54.5867 56.1441C52.8234 57.237 50.8507 57.5001 48.8608 57.5097C39.0859 57.5578 29.311 57.5501 19.5361 57.5597C19.3747 57.5616 19.2134 57.5328 19.0117 57.5136Z" fill="#39629C"/>
<path d="M56.0307 18.4446C56.0307 17.6149 56.0307 16.812 56.0307 16.0571C54.5978 15.9284 53.2129 15.9476 51.8991 15.6537C50.0224 15.2331 48.1497 15.4636 46.2788 15.4175C44.2197 15.3675 42.1587 15.4079 40.0996 15.404C39.2007 15.4021 39.0874 15.2926 39.0874 14.4244C39.0855 11.0938 39.0855 7.76504 39.0874 4.43439C39.0874 3.53354 39.1892 3.42982 40.0689 3.42598C41.5306 3.42213 42.9923 3.43558 44.4521 3.41445C44.7191 3.41061 45.0514 3.35683 45.2416 3.19548C47.704 1.09606 50.6409 0.241306 53.7776 0.0434643C57.2427 -0.175506 60.5637 0.408414 63.5237 2.35418C65.4656 3.6315 66.8447 5.30451 67.0061 7.75544C67.0176 7.92255 67.2001 8.12231 67.3576 8.22795C69.7029 9.82605 70.8342 12.0388 70.7785 14.8758C70.7555 16.0456 70.7747 17.2173 70.7747 18.4466C65.844 18.4446 60.9767 18.4446 56.0307 18.4446ZM55.9769 13.7502C57.5654 8.59482 59.4516 7.16191 64.8106 7.11581C64.5513 6.62793 64.3631 6.16886 64.0865 5.77126C63.3546 4.72251 62.3309 4.0099 61.1861 3.4836C58.0955 2.05837 54.8744 1.8202 51.5744 2.53665C50.7696 2.71144 49.9898 3.0034 49.1965 3.23966C50.2318 3.46439 50.2933 3.5297 50.2952 4.51698C50.2971 5.16429 50.2952 5.8116 50.2952 6.45698C50.2952 8.65821 50.2952 10.8594 50.2952 13.0914C52.1852 13.6503 54.0619 13.9 55.9769 13.7502ZM63.443 8.057C61.6375 8.03587 60.1258 9.50528 60.097 11.307C60.0682 13.1029 61.5491 14.6261 63.3508 14.653C65.1467 14.6799 66.668 13.1951 66.6911 11.3953C66.7141 9.58211 65.2505 8.07813 63.443 8.057ZM44.6673 10.9267C46.3096 10.9363 47.6503 9.609 47.6522 7.96864C47.6541 6.35902 46.3499 5.0356 44.7422 5.01447C43.0903 4.99334 41.7438 6.29179 41.715 7.92831C41.6881 9.54753 43.0365 10.9171 44.6673 10.9267Z" fill="#39629C"/>
<path d="M9.98609 50.6332C9.98609 47.2065 9.98417 43.7799 9.98609 40.3532C9.98609 39.1757 10.2108 38.951 11.3595 38.9491C12.7962 38.9471 14.2349 38.9375 15.6716 38.9529C16.8452 38.9644 17.5079 39.6117 17.5098 40.7777C17.5175 47.558 17.5175 54.3404 17.5098 61.1207C17.5079 62.304 16.8087 62.9801 15.6198 62.9916C14.4212 63.0031 13.2245 62.9974 12.026 62.9935C10.6353 62.9897 9.99377 62.3712 9.98993 60.9863C9.98033 57.5327 9.98609 54.083 9.98609 50.6332Z" fill="#39629C"/>
<path d="M70.7225 26.7385C70.7225 27.9813 70.8051 29.1818 70.6995 30.3631C70.5823 31.6807 69.3376 32.7564 67.9681 32.7736C64.9256 32.8101 61.8811 32.8121 58.8386 32.7736C57.3058 32.7544 56.088 31.4771 56.0457 29.9405C56.0169 28.8917 56.04 27.8411 56.04 26.7385C60.9495 26.7385 65.8014 26.7385 70.7225 26.7385Z" fill="#39629C"/>
<path d="M70.73 19.9985C70.73 21.7426 70.73 23.4521 70.73 25.202C65.8359 25.202 60.9859 25.202 56.0859 25.202C56.0859 23.4675 56.0859 21.758 56.0859 19.9985C60.9609 19.9985 65.8243 19.9985 70.73 19.9985Z" fill="#39629C"/>
<path d="M43.9323 37.9099C42.8778 37.0801 42.4207 36.2254 42.438 34.9519C42.5148 29.251 42.4706 23.5481 42.4706 17.8472C42.4706 17.5418 42.4706 17.2384 42.4706 16.8945C43.965 16.8945 45.3653 16.8945 46.8481 16.8945C46.8481 18.2314 46.8481 19.5414 46.8481 20.8514C46.8481 21.5467 46.8788 22.242 46.8347 22.9354C46.7962 23.5385 47.0075 23.9361 47.5415 24.2147C47.943 24.424 48.3098 24.6968 48.7919 25.008C48.2849 25.3383 47.8354 25.6264 47.3898 25.9242C46.6407 26.4236 46.6368 26.9191 47.3802 27.4147C47.7989 27.6932 48.2215 27.9621 48.6421 28.2368C48.6594 28.2483 48.669 28.2733 48.7324 28.3693C48.2618 28.6728 47.7835 28.9686 47.3206 29.2855C46.6618 29.7369 46.6618 30.2479 47.3206 30.6993C47.772 31.0066 48.2388 31.2909 48.7996 31.65C48.3386 31.9497 47.9622 32.2301 47.555 32.4472C47.0325 32.7276 46.7809 33.1079 46.8347 33.7187C46.8769 34.1951 46.7694 34.6907 46.8577 35.1536C47.1036 36.4309 46.2661 37.0974 45.396 37.9598C45.396 37.5584 45.396 37.3068 45.396 37.0532C45.396 32.0707 45.396 27.0862 45.396 22.1037C45.396 21.8636 45.4709 21.5621 45.3556 21.4007C45.1732 21.1433 44.8697 20.8418 44.5989 20.8225C44.3972 20.8091 44.1091 21.1798 43.965 21.4391C43.8632 21.6235 43.9323 21.9078 43.9323 22.146C43.9323 27.1055 43.9323 32.0649 43.9323 37.0244C43.9323 37.276 43.9323 37.5315 43.9323 37.9099Z" fill="#39629C"/>
<path d="M65.2503 11.3799C65.235 12.373 64.3956 13.2047 63.4045 13.2105C62.3922 13.2162 61.5202 12.3327 61.5394 11.3223C61.5567 10.3274 62.396 9.49949 63.3891 9.49757C64.411 9.49373 65.2657 10.3581 65.2503 11.3799Z" fill="#39629C"/>
<path d="M44.709 6.4667C45.5464 6.4763 46.211 7.14858 46.2072 7.9822C46.2033 8.81391 45.533 9.4881 44.7013 9.49579C43.8465 9.50347 43.1358 8.78509 43.1608 7.94187C43.1858 7.11785 43.8792 6.45518 44.709 6.4667Z" fill="#39629C"/>
</g>
<g clip-path="url(#clip1_3549_30741)">
<g filter="url(#filter0_d_3549_30741)">
<path d="M12.5828 43C12.8641 43 13.1453 43 13.4266 43C13.5578 43.0188 13.6891 43.0375 13.8203 43.0562C14.2766 43.1125 14.7391 43.1375 15.1891 43.2188C17.5703 43.6687 19.6391 44.7312 21.3703 46.425C23.2953 48.3125 24.4641 50.5875 24.8641 53.2625C24.9203 53.625 24.9578 53.9875 25.0078 54.35C25.0078 54.7875 25.0078 55.225 25.0078 55.6625C24.9578 56.0875 24.9203 56.5125 24.8453 56.9312C24.3891 59.6313 23.1641 61.925 21.1641 63.7875C19.3516 65.475 17.2078 66.5062 14.7516 66.8625C14.3891 66.9125 14.0266 66.9562 13.6641 67C13.2266 67 12.7891 67 12.3516 67C12.2766 66.9875 12.2016 66.9625 12.1266 66.9562C11.5953 66.8812 11.0516 66.8438 10.5328 66.725C7.42656 66.05 4.96406 64.3938 3.13906 61.7938C1.98906 60.15 1.31406 58.325 1.10781 56.325C1.07656 56.0375 1.04531 55.7563 1.00781 55.4688C1.00781 55.1562 1.00781 54.8438 1.00781 54.5312C1.02656 54.425 1.04531 54.3187 1.05781 54.2125C1.12656 53.675 1.15781 53.125 1.27031 52.5938C1.88906 49.6625 3.40156 47.275 5.78281 45.4562C7.52656 44.125 9.49531 43.3438 11.6766 43.1063C11.9766 43.0688 12.2766 43.0312 12.5828 43ZM10.7453 56.9875C10.6516 56.8688 10.6078 56.7875 10.5453 56.7312C9.78281 55.9688 9.02031 55.2063 8.25781 54.4438C7.87656 54.0625 7.40781 53.9187 6.88281 54.0312C6.32031 54.15 5.93906 54.5063 5.77656 55.0625C5.61406 55.6125 5.74531 56.1187 6.15156 56.525C7.28906 57.6687 8.42656 58.8 9.56406 59.9375C10.3141 60.6875 11.1578 60.6875 11.9016 59.9438C14.4953 57.35 17.0953 54.75 19.6891 52.1562C19.7828 52.0625 19.8766 51.9688 19.9578 51.8625C20.5453 51.0875 20.2391 49.95 19.3328 49.6C18.7078 49.3625 18.1578 49.5062 17.6828 49.9812C15.4391 52.225 13.2016 54.4688 10.9578 56.7125C10.9078 56.7812 10.8516 56.8562 10.7453 56.9875Z" fill="#24E51A"/>
</g>
<path d="M10.7467 56.9876C10.853 56.8563 10.903 56.7751 10.9717 56.7126C13.2155 54.4688 15.4592 52.2251 17.6967 49.9813C18.1717 49.5063 18.7217 49.3626 19.3467 49.6001C20.253 49.9501 20.5592 51.0876 19.9717 51.8626C19.8905 51.9688 19.7967 52.0626 19.703 52.1563C17.1092 54.7501 14.5092 57.3501 11.9155 59.9438C11.1717 60.6876 10.328 60.6876 9.57798 59.9376C8.44048 58.8001 7.29673 57.6626 6.16548 56.5251C5.75923 56.1126 5.62798 55.6126 5.79048 55.0626C5.95298 54.5126 6.33423 54.1563 6.89673 54.0313C7.42173 53.9188 7.88423 54.0626 8.27173 54.4438C9.03423 55.2063 9.79673 55.9688 10.5592 56.7313C10.6155 56.7938 10.6592 56.8688 10.7467 56.9876Z" fill="white"/>
</g>
<defs>
<filter id="filter0_d_3549_30741" x="0.0078125" y="42.5" width="26" height="26" filterUnits="userSpaceOnUse" color-interpolation-filters="sRGB">
<feFlood flood-opacity="0" result="BackgroundImageFix"/>
<feColorMatrix in="SourceAlpha" type="matrix" values="0 0 0 0 0 0 0 0 0 0 0 0 0 0 0 0 0 0 127 0" result="hardAlpha"/>
<feOffset dy="0.5"/>
<feGaussianBlur stdDeviation="0.5"/>
<feComposite in2="hardAlpha" operator="out"/>
<feColorMatrix type="matrix" values="0 0 0 0 0 0 0 0 0 0 0 0 0 0 0 0 0 0 0.25 0"/>
<feBlend mode="normal" in2="BackgroundImageFix" result="effect1_dropShadow_3549_30741"/>
<feBlend mode="normal" in="SourceGraphic" in2="effect1_dropShadow_3549_30741" result="shape"/>
</filter>
<clipPath id="clip0_3549_30741">
<rect width="63" height="63" fill="white" transform="translate(9)"/>
</clipPath>
<clipPath id="clip1_3549_30741">
<rect width="27" height="27" fill="white" transform="translate(0 42)"/>
</clipPath>
</defs>
</svg>
