<svg width="32" height="32" viewBox="0 0 32 32" fill="none" xmlns="http://www.w3.org/2000/svg">
<g filter="url(#filter0_d_3520_11784)">
<rect x="4" y="3" width="24" height="24" rx="8" fill="white"/>
<g clip-path="url(#clip0_3520_11784)">
<path d="M10.729 23.0001C10.5764 22.9257 10.4041 22.9218 10.2436 22.8748C9.8756 22.7613 9.80905 22.5186 10.0792 22.2484C10.455 21.8765 10.8308 21.5007 11.2106 21.1327C11.2889 21.0583 11.3045 20.98 11.3202 20.8782C11.3672 20.5376 11.2654 20.2714 10.9835 20.0757C10.9757 20.0718 10.9678 20.0639 10.96 20.0522C10.7486 19.7468 10.4589 19.6372 10.0909 19.6881C10.0048 19.6999 9.93824 19.7234 9.8756 19.786C9.49978 20.1697 9.12395 20.5494 8.74421 20.9291C8.48192 21.1953 8.23528 21.1288 8.12566 20.7686C7.59716 18.9874 8.7403 17.1239 10.5568 16.8029C10.9796 16.7285 11.4063 16.7363 11.8252 16.8381C11.8918 16.8538 11.9348 16.8538 11.9896 16.8029C12.7295 16.0591 13.4734 15.3152 14.2367 14.5518C14.1937 14.5166 14.1467 14.4931 14.1115 14.454C12.9057 13.2482 11.7038 12.0424 10.502 10.8327C10.4237 10.7544 10.3454 10.7153 10.2319 10.7192C10.0439 10.7309 9.85603 10.7192 9.67203 10.7231C9.52718 10.727 9.4254 10.6644 9.35101 10.543C8.92429 9.82661 8.48975 9.11019 8.06303 8.39377C7.96516 8.22935 7.98082 8.09233 8.11784 7.95531C8.39187 7.67736 8.66591 7.40332 8.94387 7.12928C9.09263 6.98443 9.21399 6.96877 9.39408 7.07447C10.1066 7.50119 10.8152 7.92791 11.5277 8.35463C11.6608 8.43292 11.7234 8.55037 11.7195 8.70305C11.7156 8.89488 11.7234 9.0867 11.7156 9.27853C11.7117 9.36857 11.743 9.43121 11.8056 9.49385C13.0231 10.7114 14.2367 11.9289 15.4504 13.1464C15.5208 13.2208 15.5561 13.2325 15.6383 13.1542C16.3429 12.4417 17.0554 11.7331 17.7679 11.0246C17.8306 10.9619 17.8502 10.9032 17.8267 10.8171C17.49 9.43513 18.1947 8.0062 19.4044 7.36808C20.1873 6.95702 21.0055 6.89439 21.8472 7.1606C22.1017 7.24281 22.1565 7.5051 21.9647 7.70476C21.5849 8.09625 21.2013 8.48382 20.8137 8.87139C20.7393 8.94577 20.7197 9.02407 20.7041 9.12977C20.6571 9.47427 20.7589 9.74831 21.0408 9.95189C21.0564 9.96363 21.0721 9.97929 21.0838 9.99495C21.2678 10.2651 21.5184 10.359 21.8433 10.3199C21.9686 10.3042 22.0625 10.2768 22.1526 10.1868C22.5127 9.81095 22.8807 9.44687 23.2487 9.07887C23.5071 8.82049 23.7538 8.88313 23.8595 9.23155C23.8869 9.32159 23.8908 9.42338 23.9456 9.50168C23.9456 9.9284 23.9456 10.3551 23.9456 10.7818C23.8947 10.8249 23.8986 10.8915 23.8829 10.9502C23.7577 11.4082 23.5463 11.8232 23.2292 12.1716C22.407 13.0799 21.3931 13.4126 20.1912 13.1777C20.0934 13.1582 20.0307 13.1738 19.9603 13.2443C19.5609 13.6514 19.1538 14.0547 18.7506 14.4579C18.5705 14.638 18.3904 14.8141 18.2025 14.9981C18.2886 15.0764 18.3669 15.1469 18.4413 15.2174C18.5118 15.28 18.5744 15.3818 18.6527 15.3935C18.7388 15.4092 18.7858 15.2878 18.8563 15.2291C18.9581 15.1469 19.0677 15.1156 19.189 15.1626C19.3026 15.2095 19.373 15.2996 19.3848 15.4248C19.4004 15.558 19.33 15.6558 19.2321 15.7341C19.1303 15.8163 19.1381 15.8672 19.236 15.9534C20.5318 17.1356 21.8198 18.3297 23.1235 19.508C23.4875 19.8369 23.8007 20.1853 23.9417 20.6668C23.9417 20.9879 23.9417 21.3128 23.9417 21.6338C23.8947 21.6573 23.8947 21.7121 23.879 21.7512C23.6598 22.3346 23.2566 22.726 22.6654 22.9179C22.5597 22.9531 22.454 22.9766 22.3483 23.004C22.1604 23.004 21.9725 23.004 21.7885 23.004C21.7728 22.9492 21.718 22.9609 21.6867 22.9531C21.2952 22.8631 20.9742 22.6556 20.7002 22.362C19.4748 21.0309 18.2534 19.7038 17.028 18.3727C16.9654 18.3023 16.9106 18.2005 16.8323 18.177C16.7383 18.1457 16.7031 18.2866 16.6248 18.3297C16.617 18.3336 16.6091 18.3414 16.6013 18.3492C16.4721 18.4354 16.3116 18.4236 16.202 18.3179C16.0963 18.2122 16.0806 18.0635 16.1668 17.9343C16.2059 17.8755 16.2568 17.8207 16.3116 17.7698C16.3782 17.7111 16.3977 17.672 16.3194 17.6015C16.2255 17.5154 16.1355 17.4175 16.0572 17.3157C15.9906 17.2335 15.9515 17.2453 15.8849 17.3157C15.3368 17.8677 14.7848 18.4197 14.2328 18.9678C14.1585 19.0422 14.135 19.1087 14.1624 19.2144C14.2602 19.6137 14.2798 20.017 14.1937 20.4202C13.9275 21.6651 13.1993 22.5029 11.97 22.8826C11.7939 22.9375 11.6138 22.9649 11.4337 23.0079C11.2067 23.0001 10.9678 23.0001 10.729 23.0001ZM8.64243 20.1227C8.95561 19.8134 9.26489 19.5159 9.56633 19.2105C9.6642 19.1126 9.7699 19.0617 9.91084 19.0657C10.1614 19.0735 10.408 19.0696 10.6586 19.0657C10.7917 19.0617 10.8974 19.1048 10.9913 19.1988C11.2575 19.4689 11.5277 19.7351 11.7978 20.0013C11.8918 20.0953 11.9387 20.2049 11.9387 20.3341C11.9387 20.5846 11.9387 20.8313 11.9387 21.0818C11.9387 21.2188 11.8878 21.3284 11.79 21.4263C11.5198 21.6925 11.2497 21.9587 10.9835 22.2289C10.9483 22.2641 10.8974 22.2876 10.8896 22.3463C11.2536 22.4285 11.8996 22.3072 12.3146 22.0723C13.3637 21.4811 13.8453 20.338 13.5203 19.1792C13.4655 18.9834 13.4851 18.8347 13.6339 18.6859C15.6539 16.6698 17.6701 14.6536 19.6862 12.6336C19.8272 12.4926 19.972 12.4613 20.1638 12.5161C21.4792 12.8959 22.8103 12.1951 23.2487 10.8954C23.3623 10.5665 23.3936 10.2259 23.3505 9.8775C23.0373 10.1829 22.732 10.4804 22.4344 10.7818C22.3327 10.8836 22.223 10.9384 22.0743 10.9345C21.8316 10.9267 21.5849 10.9267 21.3422 10.9345C21.1974 10.9384 21.0838 10.8875 20.982 10.7818C20.7315 10.5195 20.4809 10.2572 20.2265 9.99495C20.1325 9.90099 20.0855 9.79138 20.0895 9.66219C20.0895 9.41164 20.0895 9.165 20.0895 8.91445C20.0895 8.78135 20.1325 8.67173 20.2265 8.58169C20.3792 8.43292 20.5279 8.28024 20.6767 8.12756C20.8294 7.97489 20.9781 7.81829 21.1504 7.64604C20.8215 7.60689 20.5279 7.63429 20.2421 7.71259C18.8602 8.10016 18.0968 9.44687 18.4844 10.8327C18.5431 11.0402 18.5 11.1851 18.3513 11.3338C16.339 13.3343 14.3307 15.3426 12.3302 17.351C12.1815 17.5036 12.0327 17.5389 11.8291 17.4841C10.7564 17.1904 9.7425 17.5428 9.08872 18.4315C8.72072 18.9326 8.5837 19.5002 8.64243 20.1227ZM23.3701 21.1405C23.3623 21.0113 23.3544 20.8939 23.3192 20.7765C23.2527 20.5533 23.1313 20.3615 22.963 20.201C21.5732 18.9247 20.1834 17.6485 18.7936 16.3762C18.7349 16.3214 18.6997 16.2665 18.6096 16.3566C18.1947 16.7833 17.7679 17.2061 17.3451 17.625C17.2786 17.6915 17.2942 17.7268 17.3491 17.7855C18.637 19.1792 19.9172 20.5768 21.2052 21.9705C21.5614 22.3581 22.1095 22.4755 22.591 22.2837C23.053 22.0997 23.3662 21.6299 23.3701 21.1405ZM11.0931 9.21981C11.0931 9.11411 11.0892 9.01232 11.0931 8.90662C11.097 8.84007 11.0696 8.80483 11.0148 8.77352C10.4511 8.43684 9.88343 8.09625 9.32361 7.75565C9.25314 7.71259 9.21791 7.73216 9.16702 7.78306C9.04174 7.91616 8.91646 8.04535 8.77945 8.16671C8.70898 8.22935 8.71681 8.27633 8.75987 8.35071C9.01042 8.76177 9.25706 9.17675 9.50369 9.59172C9.60156 9.75614 9.6642 9.97538 9.80905 10.0693C9.96173 10.1672 10.1927 10.0967 10.3884 10.0967C10.5685 10.0928 10.7016 10.1555 10.8308 10.2807C11.9896 11.4513 13.1562 12.614 14.319 13.7806C14.4325 13.8941 14.5343 14.0938 14.6674 14.0899C14.7809 14.0899 14.8827 13.8863 15.0041 13.7884C15.1019 13.7062 15.0824 13.6553 15.0001 13.5731C13.7983 12.3713 12.6003 11.1655 11.3946 9.97146C11.1792 9.75223 11.0227 9.54083 11.0931 9.21981ZM18.2182 15.8594C18.2025 15.8398 18.1947 15.8281 18.1829 15.8163C18.0616 15.7028 17.9363 15.5932 17.8188 15.4797C17.764 15.4288 17.7366 15.4718 17.7053 15.5031C17.2982 15.9103 16.891 16.3174 16.4839 16.7207C16.4369 16.7676 16.4369 16.795 16.4839 16.842C16.5896 16.9477 16.6914 17.0613 16.7892 17.1748C16.8323 17.2218 16.8597 17.2335 16.9106 17.1787C17.3295 16.7559 17.7523 16.3331 18.1751 15.9142C18.1868 15.8985 18.2025 15.879 18.2182 15.8594Z" fill="#39629C" stroke="#39629C" stroke-width="0.3"/>
<path d="M14.0448 17.2649C13.8139 17.2649 13.6612 17.0143 13.7747 16.8107C13.806 16.752 13.8569 16.7011 13.9039 16.6542C15.1527 15.4053 16.4016 14.1526 17.6504 12.9037C17.6896 12.8646 17.7326 12.8215 17.7796 12.7902C17.9049 12.7041 18.0615 12.7158 18.1672 12.8176C18.2768 12.9194 18.2964 13.0838 18.2063 13.213C18.175 13.26 18.1359 13.303 18.0928 13.3422C16.8439 14.5949 15.5951 15.8477 14.3463 17.0965C14.2601 17.1827 14.1779 17.2688 14.0448 17.2649Z" fill="#39629C" stroke="#39629C" stroke-width="0.3"/>
<path d="M18.8327 11.8545C19.0011 11.8545 19.142 11.9915 19.1459 12.1559C19.1498 12.3204 19.0128 12.4652 18.8445 12.4691C18.6722 12.473 18.5234 12.3321 18.5234 12.1599C18.5274 11.9993 18.6683 11.8584 18.8327 11.8545Z" fill="#39629C" stroke="#39629C" stroke-width="0.3"/>
<path d="M13.4685 17.8364C13.4724 18.0008 13.3314 18.1456 13.167 18.1495C12.9987 18.1535 12.8578 18.0243 12.8499 17.8559C12.8421 17.6837 12.983 17.5388 13.1592 17.5349C13.3236 17.5349 13.4646 17.668 13.4685 17.8364Z" fill="#39629C" stroke="#39629C" stroke-width="0.3"/>
<path d="M22.2083 20.9134C22.1965 21.1522 21.9499 21.2853 21.7542 21.1718C21.6993 21.1404 21.6524 21.0974 21.6093 21.0543C20.7206 20.1696 19.8359 19.2887 18.9472 18.404C18.9159 18.3766 18.8885 18.3452 18.8611 18.3139C18.7436 18.1691 18.7476 17.9968 18.8689 17.8794C18.9824 17.7658 19.1547 17.7658 19.2956 17.8715C19.323 17.895 19.3504 17.9185 19.3739 17.9459C20.2665 18.8385 21.163 19.7272 22.0556 20.6198C22.1417 20.702 22.2239 20.792 22.2083 20.9134Z" fill="#39629C" stroke="#39629C" stroke-width="0.3"/>
</g>
</g>
<defs>
<filter id="filter0_d_3520_11784" x="0" y="0" width="32" height="32" filterUnits="userSpaceOnUse" color-interpolation-filters="sRGB">
<feFlood flood-opacity="0" result="BackgroundImageFix"/>
<feColorMatrix in="SourceAlpha" type="matrix" values="0 0 0 0 0 0 0 0 0 0 0 0 0 0 0 0 0 0 127 0" result="hardAlpha"/>
<feOffset dy="1"/>
<feGaussianBlur stdDeviation="2"/>
<feComposite in2="hardAlpha" operator="out"/>
<feColorMatrix type="matrix" values="0 0 0 0 0.223529 0 0 0 0 0.384314 0 0 0 0 0.611765 0 0 0 0.4 0"/>
<feBlend mode="normal" in2="BackgroundImageFix" result="effect1_dropShadow_3520_11784"/>
<feBlend mode="normal" in="SourceGraphic" in2="effect1_dropShadow_3520_11784" result="shape"/>
</filter>
<clipPath id="clip0_3520_11784">
<rect width="15.953" height="16" fill="white" transform="translate(8 7)"/>
</clipPath>
</defs>
</svg>
