<svg width="48" height="48" viewBox="0 0 48 48" fill="none" xmlns="http://www.w3.org/2000/svg">
<g filter="url(#filter0_d_3294_31799)">
<circle cx="24" cy="22" r="20" fill="#FF9626"/>
<g clip-path="url(#clip0_3294_31799)">
<path d="M11.0007 28.9652C10.925 27.8296 11.19 26.7318 11.8714 25.8233C12.5528 24.9148 13.4235 24.3469 14.5213 24.1198C14.7484 24.0819 14.8619 23.9684 14.9377 23.7413C15.7705 21.2807 17.5118 19.8801 20.0102 19.4258C21.5244 19.1608 23.0765 19.123 24.5907 19.6151C25.4992 19.9179 26.2941 20.41 26.9755 21.0536C27.884 21.9621 28.7925 22.8706 29.7011 23.7791C29.8525 23.9305 30.0039 24.0062 30.231 24.0062C31.026 24.0062 31.8209 23.9305 32.6159 24.1577C34.5843 24.6876 35.985 26.2397 36.2121 28.246C36.2878 28.8517 36.2878 29.4573 36.2121 30.0252C36.0607 31.0094 35.2279 31.7286 34.2058 31.6908C33.6758 31.6908 33.373 31.7665 33.1459 32.3343C32.7295 33.4321 31.556 34.0378 30.3446 33.9621C29.2468 33.8864 28.2626 33.0914 27.9219 31.9936C27.8462 31.7665 27.7326 31.6908 27.5055 31.6908C24.8935 31.6908 22.2437 31.6908 19.6317 31.6908C19.4045 31.6908 19.3288 31.7665 19.2531 31.9558C18.9124 33.1293 17.8146 33.9242 16.6411 33.9621C15.3541 33.9621 14.2563 33.2428 13.8777 32.0315C13.802 31.7286 13.6506 31.6529 13.3856 31.6908C12.7799 31.7286 12.2121 31.6151 11.7578 31.2365C11.2279 30.8201 10.9629 30.2901 10.9629 29.6088C11.0007 29.4195 11.0007 29.1924 11.0007 28.9652ZM35.0765 30.1766C35.0007 30.1009 34.925 30.063 34.8872 30.0252C34.6601 29.798 34.6601 29.3059 34.9629 29.1924C35.3036 29.0788 35.2279 28.8517 35.2279 28.6245C35.2279 28.4731 35.1522 28.3974 35.0008 28.3974C34.7358 28.3974 34.5086 28.3974 34.2437 28.3974C33.7894 28.3974 33.5623 28.2081 33.5623 27.8296C33.5623 27.4889 33.7894 27.2996 34.2058 27.2996C34.3951 27.2996 34.6222 27.2996 34.8872 27.2996C34.8115 27.1482 34.7736 27.0346 34.6979 26.9589C33.9408 25.7476 32.843 25.0662 31.4424 25.0662C26.1048 25.0662 20.7295 25.0662 15.3919 25.0662C13.9156 25.0662 12.5149 26.1261 12.2121 27.5646C12.0607 28.2081 12.0985 28.8895 12.0985 29.533C12.0985 30.1766 12.5149 30.593 13.1585 30.593C13.272 30.593 13.3856 30.593 13.4992 30.593C13.7642 30.6308 13.8777 30.5173 13.9534 30.2901C14.332 29.0788 15.3919 28.3217 16.6411 28.3217C17.8903 28.3217 18.9881 29.1166 19.3288 30.2901C19.4045 30.5551 19.5181 30.593 19.7831 30.593C22.3572 30.593 24.9692 30.593 27.5433 30.593C27.8083 30.593 27.9219 30.5173 28.0354 30.2523C28.3761 29.1166 29.3982 28.3595 30.5717 28.3217C31.7452 28.2838 32.843 28.9274 33.2973 30.0252C33.373 30.2144 33.4487 30.4794 33.6001 30.5551C33.7515 30.6687 34.0165 30.593 34.2437 30.593C34.5843 30.6308 34.8872 30.4794 35.0765 30.1766ZM22.8493 24.0062C22.7358 23.7413 22.6601 23.552 22.5465 23.3248C22.4329 23.022 22.5465 22.7192 22.8115 22.5678C23.0765 22.4542 23.3793 22.5678 23.5307 22.8706C23.6443 23.1356 23.7957 23.4384 23.9093 23.7413C23.985 23.9305 24.0985 24.0062 24.3257 24.0062C25.5749 24.0062 26.8241 24.0062 28.0733 24.0062C28.149 24.0062 28.2626 24.0062 28.3761 23.9684C28.3004 23.8927 28.3004 23.8548 28.2626 23.817C27.5812 23.1356 26.9377 22.492 26.2563 21.8485C25.9534 21.5835 25.6127 21.3185 25.272 21.1293C24.2121 20.4857 23.0765 20.3343 21.8651 20.3722C21.6001 20.3722 21.5244 20.4479 21.5244 20.7129C21.5244 21.7349 21.5244 22.7192 21.5244 23.7413C21.5244 23.8548 21.5244 23.9305 21.5623 24.0441C21.9787 24.0062 22.3951 24.0062 22.8493 24.0062ZM20.4266 20.4857C18.1553 20.7886 16.4897 22.3028 16.0354 24.0062C16.1112 24.0062 16.1869 24.0062 16.3004 24.0062C17.5875 24.0062 18.8746 24.0062 20.1616 24.0062C20.4266 24.0062 20.4645 23.9305 20.4645 23.7034C20.4645 22.7192 20.4645 21.7349 20.4645 20.7886C20.4645 20.675 20.4645 20.5614 20.4266 20.4857ZM30.6853 32.94C31.6317 32.94 32.4266 32.145 32.4266 31.1987C32.4266 30.2523 31.6695 29.4573 30.6853 29.4573C29.7389 29.4573 28.9061 30.2523 28.944 31.1987C28.9818 32.145 29.7389 32.94 30.6853 32.94ZM16.6033 32.94C17.5496 32.94 18.3446 32.1829 18.3446 31.1987C18.3446 30.2144 17.5496 29.4195 16.6033 29.4195C15.6569 29.4195 14.8619 30.2144 14.8619 31.1608C14.8619 32.1072 15.6569 32.94 16.6033 32.94Z" fill="white"/>
<path d="M30.7234 21.5457C27.5436 21.5835 24.9695 18.9715 24.9316 15.7917C24.9316 12.6498 27.4679 10.0378 30.6099 10.0378C33.8275 9.99992 36.4395 12.5362 36.4395 15.716C36.4774 18.8958 33.9411 21.5078 30.7234 21.5457ZM35.3796 15.7539C35.3796 13.1797 33.2976 11.0977 30.6856 11.0599C28.1115 11.0599 26.0294 13.1419 25.9916 15.716C25.9916 18.2901 28.1115 20.41 30.6856 20.41C33.2976 20.4479 35.3796 18.328 35.3796 15.7539Z" fill="white"/>
<path d="M21.4488 29.9493C21.0703 29.9493 20.7296 29.9493 20.351 29.9493C20.0103 29.9493 19.7832 29.7601 19.7832 29.4572C19.7832 29.1544 19.9725 28.8894 20.3132 28.8894C20.6539 28.8894 20.9567 28.8894 21.2974 28.8894C21.7138 28.8894 22.0924 28.8894 22.5088 28.8894C22.8873 28.8894 23.1523 29.1165 23.1523 29.4572C23.1523 29.7601 22.8873 29.9872 22.5466 29.9872C22.1681 29.9493 21.8274 29.9493 21.4488 29.9493Z" fill="white"/>
<path d="M24.8552 29.9494C24.7038 29.9494 24.5524 29.9494 24.401 29.9494C24.136 29.9494 23.9467 29.7601 23.871 29.4951C23.8331 29.268 23.9846 28.9652 24.2495 28.9273C24.6659 28.8895 25.0823 28.8895 25.4988 28.9273C25.7637 28.9652 25.9152 29.2302 25.8773 29.4951C25.8394 29.7601 25.6502 29.9494 25.3852 29.9494C25.1959 29.9873 25.0066 29.9494 24.8552 29.9494Z" fill="white"/>
<path d="M30.6853 31.8423C30.3067 31.8423 30.0039 31.5394 30.0039 31.1609C30.0039 30.8202 30.3446 30.4795 30.6853 30.4795C31.0638 30.4795 31.3667 30.7823 31.3667 31.1609C31.3667 31.5773 31.1017 31.8423 30.6853 31.8423Z" fill="white"/>
<path d="M16.6033 31.8423C16.2247 31.8423 15.9219 31.5394 15.9219 31.1609C15.9219 30.7823 16.2626 30.4795 16.6033 30.4795C16.9818 30.4795 17.2847 30.8202 17.2468 31.1987C17.2847 31.5773 17.0197 31.8423 16.6033 31.8423Z" fill="white"/>
<path d="M31.2531 15.2239C31.7831 15.2239 32.313 15.2239 32.8052 15.2239C32.9187 15.2239 33.0323 15.2239 33.1458 15.2618C33.4108 15.3375 33.5623 15.6025 33.5244 15.8296C33.4865 16.0946 33.2973 16.2839 32.9944 16.2839C32.5023 16.2839 32.0102 16.2839 31.5181 16.2839C31.3288 16.2839 31.2531 16.3217 31.2531 16.5489C31.2531 17.041 31.2531 17.4952 31.2531 17.9873C31.2531 18.4416 30.761 18.7444 30.4203 18.4795C30.3067 18.3659 30.1932 18.1766 30.1932 17.9873C30.1553 17.4952 30.1932 17.041 30.1932 16.5489C30.1932 16.3596 30.1175 16.2839 29.9282 16.2839C29.4739 16.2839 28.9818 16.2839 28.5276 16.2839C28.149 16.2839 27.9219 16.0946 27.9219 15.7539C27.9219 15.4511 28.149 15.2239 28.5276 15.2239C28.9818 15.2239 29.4361 15.2239 29.8903 15.2239C30.1553 15.2239 30.231 15.1482 30.1932 14.8832C30.1932 14.429 30.1932 14.0126 30.1932 13.5583C30.1932 13.1798 30.4203 12.9526 30.7231 12.9526C31.026 12.9526 31.2531 13.2176 31.2531 13.5583C31.2531 14.0883 31.2531 14.6183 31.2531 15.2239Z" fill="white"/>
</g>
</g>
<defs>
<filter id="filter0_d_3294_31799" x="0" y="0" width="48" height="48" filterUnits="userSpaceOnUse" color-interpolation-filters="sRGB">
<feFlood flood-opacity="0" result="BackgroundImageFix"/>
<feColorMatrix in="SourceAlpha" type="matrix" values="0 0 0 0 0 0 0 0 0 0 0 0 0 0 0 0 0 0 127 0" result="hardAlpha"/>
<feOffset dy="2"/>
<feGaussianBlur stdDeviation="2"/>
<feComposite in2="hardAlpha" operator="out"/>
<feColorMatrix type="matrix" values="0 0 0 0 0 0 0 0 0 0 0 0 0 0 0 0 0 0 0.3 0"/>
<feBlend mode="normal" in2="BackgroundImageFix" result="effect1_dropShadow_3294_31799"/>
<feBlend mode="normal" in="SourceGraphic" in2="effect1_dropShadow_3294_31799" result="shape"/>
</filter>
<clipPath id="clip0_3294_31799">
<rect width="25.4385" height="24" fill="white" transform="translate(11 10)"/>
</clipPath>
</defs>
</svg>
