<svg width="48" height="48" viewBox="0 0 48 48" fill="none" xmlns="http://www.w3.org/2000/svg">
<g filter="url(#filter0_d_3239_36898)">
<circle cx="24" cy="22" r="20" fill="#FF9626"/>
<g clip-path="url(#clip0_3239_36898)">
<path d="M20.3577 14.6253C19.6016 14.2652 18.8576 13.9412 18.1435 13.5632C17.8015 13.3832 17.4775 13.1311 17.2014 12.8551C16.6194 12.2671 16.7814 11.625 17.5615 11.343C18.1255 11.139 18.7136 11.127 19.3076 11.139C20.3937 11.157 21.4678 11.325 22.5299 11.535C22.5899 11.547 22.6619 11.577 22.7099 11.559C23.37 11.301 24.072 11.367 24.7501 11.307C26.3882 11.169 28.0263 11.061 29.6645 10.947C29.8805 10.929 30.1025 10.911 30.3125 10.953C30.8766 11.061 31.2606 11.403 31.4226 11.955C32.0347 14.0912 32.6347 16.2274 33.2348 18.3636C33.3668 18.8316 33.2888 19.2637 33.0068 19.6657C32.3887 20.5418 31.7767 21.4178 31.1646 22.2939C31.1106 22.3719 31.0626 22.4439 31.0086 22.5219C33.6248 23.434 35.1189 25.2042 35.0109 28.0184C34.9209 30.2986 33.6728 31.8827 31.5546 32.7288C30.4145 33.1848 29.2384 33.1848 28.0683 32.8068C26.9042 32.4288 25.9802 31.7147 25.2661 30.6946C24.8701 31.2587 24.486 31.8047 24.102 32.3507C23.532 33.1608 22.7759 33.2928 21.9598 32.7228C19.1696 30.7666 16.3794 28.8105 13.5891 26.8543C12.8451 26.3322 12.7071 25.5582 13.2291 24.8141C15.5633 21.4838 17.8915 18.1596 20.2197 14.8353C20.2737 14.7573 20.3217 14.6853 20.3577 14.6253ZM24.384 28.1024C24.312 28.1924 24.264 28.2464 24.222 28.3064C23.904 28.7625 23.58 29.2185 23.2619 29.6745C22.9019 30.1846 22.4759 30.2566 21.9658 29.9025C20.0697 28.5704 18.1735 27.2443 16.2774 25.9122C15.7913 25.5702 15.7073 25.1441 16.0493 24.6581C17.6335 22.3959 19.2116 20.1397 20.7957 17.8835C21.1258 17.4155 21.5698 17.3375 22.0378 17.6615C22.6439 18.0816 23.2439 18.5076 23.844 18.9276C25.1461 19.8397 26.4422 20.7518 27.7443 21.6639C28.0623 21.8859 28.2244 22.1559 28.1644 22.5519C28.1644 22.5699 28.1764 22.5879 28.1884 22.6119C28.1884 22.5879 28.1884 22.5639 28.1884 22.5459C28.8004 22.5039 29.4185 22.4559 30.0305 22.4259C30.1805 22.4199 30.2645 22.3839 30.3485 22.2639C30.9426 21.4058 31.5426 20.5478 32.1487 19.6897C32.7247 18.8736 32.6827 18.9696 32.4307 18.0756C31.8847 16.1374 31.3386 14.2052 30.7926 12.2671C30.6606 11.799 30.3725 11.577 29.9405 11.607C27.7563 11.763 25.5661 11.931 23.382 12.0811C23.0699 12.1051 22.8419 12.2371 22.6679 12.4891C22.3259 12.9871 21.9778 13.4792 21.6298 13.9772C21.5758 14.0552 21.5218 14.1332 21.4678 14.2172C22.5359 14.6373 25.4461 15.1533 26.1902 15.0633C26.2082 14.9913 26.2262 14.9193 26.2382 14.8413C26.4542 13.8512 27.4503 13.2392 28.4344 13.4792C29.4245 13.7252 30.0125 14.7273 29.7425 15.7054C29.5385 16.4374 28.9084 16.9715 28.1764 17.0315C27.3603 17.0975 26.6582 16.6834 26.3402 15.9574C26.2982 15.8614 26.2862 15.7654 26.1362 15.7594C24.48 15.6814 22.8659 15.3513 21.2818 14.8773C21.1018 14.8233 21.0118 14.8473 20.9037 15.0033C18.5576 18.3816 16.1874 21.7599 13.8232 25.1441C13.4751 25.6422 13.5351 25.9842 14.0392 26.3382C15.6593 27.4723 17.2734 28.6064 18.8936 29.7405C20.0757 30.5686 21.2518 31.3967 22.4339 32.2187C22.8119 32.4828 23.2139 32.4408 23.46 32.0987C23.922 31.4567 24.372 30.8086 24.8221 30.1606C24.8581 30.1066 24.8821 30.0046 24.8581 29.9506C24.6001 29.3745 24.45 28.7745 24.384 28.1024ZM27.5343 22.3719C27.4743 22.3179 27.4203 22.2579 27.3543 22.2099C25.4701 20.8898 23.586 19.5697 21.7078 18.2436C21.5398 18.1236 21.4438 18.1296 21.3238 18.3096C19.7637 20.5478 18.1975 22.78 16.6314 25.0061C16.5054 25.1862 16.5354 25.2762 16.7094 25.3962C18.5816 26.7043 20.4537 28.0124 22.3259 29.3265C22.5659 29.4945 22.5779 29.4945 22.7459 29.2605C23.2859 28.4924 23.826 27.7304 24.354 26.9563C24.42 26.8603 24.468 26.7403 24.498 26.6203C24.8221 25.2102 25.5781 24.0941 26.7782 23.296C27.1023 23.086 27.2643 22.768 27.4863 22.4799C27.4983 22.4559 27.5103 22.4259 27.5343 22.3719ZM29.7005 32.3928C32.2507 32.4048 34.3449 30.3226 34.3629 27.7664C34.3809 25.1922 32.3107 23.092 29.7425 23.074C27.1863 23.056 25.0621 25.1441 25.0561 27.7064C25.0441 30.2806 27.1203 32.3808 29.7005 32.3928ZM22.1098 12.1351C20.9037 11.901 19.7336 11.733 18.5455 11.823C18.2575 11.847 17.9815 11.925 17.7055 11.9971C17.5315 12.0451 17.4835 12.1711 17.6215 12.3091C17.7535 12.4471 17.8915 12.5911 18.0475 12.6991C18.8576 13.2752 19.7697 13.6352 20.6937 13.9592C20.7417 13.9772 20.8377 13.9472 20.8617 13.9112C21.2758 13.3352 21.6778 12.7531 22.1098 12.1351ZM27.0483 15.7654C27.2343 16.1554 27.6603 16.3894 28.1043 16.3594C28.5844 16.3234 28.9804 15.9934 29.1124 15.5313C29.2324 15.1173 29.0944 14.6613 28.7884 14.4273C28.8604 14.9733 28.7584 15.2253 28.3624 15.4413C28.2124 15.5193 28.0503 15.5854 27.8883 15.6214C27.6183 15.6814 27.3423 15.7174 27.0483 15.7654ZM26.8922 15.0933C27.2163 15.0453 27.5043 15.0093 27.7803 14.9493C27.9063 14.9193 28.0203 14.8233 28.1343 14.7573C28.0563 14.6373 27.9903 14.5113 27.9063 14.3973C27.8583 14.3312 27.7863 14.2712 27.7143 14.2352C27.6543 14.2052 27.5643 14.1932 27.5103 14.2172C27.1743 14.3853 26.9763 14.6673 26.8922 15.0933Z" fill="#F9FAFA" stroke="#F9FAFA" stroke-width="0.4"/>
<path d="M30.816 28.8344C30.816 29.2184 30.822 29.5724 30.816 29.9265C30.804 30.5565 30.3179 31.0306 29.7059 31.0306C29.1058 31.0306 28.6258 30.5625 28.5958 29.9445C28.5898 29.7345 28.5958 29.5244 28.5958 29.3144C28.5958 29.1644 28.5958 29.0084 28.5958 28.8284C28.1998 28.8284 27.8277 28.8404 27.4617 28.8284C26.9096 28.8104 26.4596 28.3783 26.4116 27.8383C26.3576 27.2923 26.7176 26.7642 27.2517 26.6622C27.5457 26.6082 27.8517 26.6322 28.1517 26.6262C28.2898 26.6202 28.4278 26.6262 28.6018 26.6262C28.6018 26.2542 28.5958 25.9001 28.6018 25.5461C28.6138 25.0121 28.9558 24.568 29.4479 24.454C30.1499 24.292 30.804 24.79 30.822 25.5161C30.834 25.8701 30.822 26.2302 30.822 26.6262C30.924 26.6262 31.014 26.6262 31.098 26.6262C31.452 26.6322 31.8181 26.6022 32.1661 26.6622C32.7121 26.7522 33.0602 27.2803 33.0122 27.8503C32.9701 28.3783 32.5201 28.8104 31.9741 28.8284C31.596 28.8464 31.218 28.8344 30.816 28.8344ZM31.212 27.2983C31.002 27.2983 30.792 27.2983 30.5819 27.2983C30.2459 27.2983 30.1379 27.1902 30.1379 26.8482C30.1319 26.4282 30.1379 26.0141 30.1379 25.5941C30.1319 25.2821 29.9699 25.1021 29.6999 25.1021C29.4359 25.1021 29.2738 25.2881 29.2738 25.6001C29.2678 26.0081 29.2738 26.4222 29.2738 26.8302C29.2738 27.1842 29.1658 27.2923 28.8178 27.2923C28.4158 27.2923 28.0137 27.2923 27.6117 27.2923C27.2817 27.2923 27.0897 27.4543 27.0837 27.7183C27.0777 27.9943 27.2757 28.1683 27.6117 28.1683C28.0197 28.1683 28.4338 28.1683 28.8418 28.1683C29.1598 28.1683 29.2738 28.2823 29.2738 28.6064C29.2798 29.0144 29.2738 29.4284 29.2738 29.8365C29.2738 29.9265 29.2798 30.0285 29.3158 30.1065C29.3999 30.2925 29.5619 30.3825 29.7719 30.3525C29.9759 30.3225 30.1259 30.1605 30.1319 29.9325C30.1439 29.5004 30.1379 29.0624 30.1379 28.6304C30.1379 28.2763 30.2399 28.1683 30.594 28.1683C31.026 28.1683 31.464 28.1743 31.8961 28.1623C32.1601 28.1563 32.3461 27.9583 32.3461 27.7243C32.3461 27.4843 32.1541 27.3043 31.8901 27.2923C31.662 27.2923 31.434 27.2983 31.212 27.2983Z" fill="#F9FAFA" stroke="#F9FAFA" stroke-width="0.2"/>
</g>
</g>
<defs>
<filter id="filter0_d_3239_36898" x="0" y="0" width="48" height="48" filterUnits="userSpaceOnUse" color-interpolation-filters="sRGB">
<feFlood flood-opacity="0" result="BackgroundImageFix"/>
<feColorMatrix in="SourceAlpha" type="matrix" values="0 0 0 0 0 0 0 0 0 0 0 0 0 0 0 0 0 0 127 0" result="hardAlpha"/>
<feOffset dy="2"/>
<feGaussianBlur stdDeviation="2"/>
<feComposite in2="hardAlpha" operator="out"/>
<feColorMatrix type="matrix" values="0 0 0 0 0 0 0 0 0 0 0 0 0 0 0 0 0 0 0.1 0"/>
<feBlend mode="normal" in2="BackgroundImageFix" result="effect1_dropShadow_3239_36898"/>
<feBlend mode="normal" in="SourceGraphic" in2="effect1_dropShadow_3239_36898" result="shape"/>
</filter>
<clipPath id="clip0_3239_36898">
<rect width="24" height="24" fill="white" transform="translate(12 10)"/>
</clipPath>
</defs>
</svg>
