<svg width="24" height="26" viewBox="0 0 24 26" fill="none" xmlns="http://www.w3.org/2000/svg">
<path d="M9.53763 24.999C8.05477 24.3866 6.57192 23.7742 5.08906 23.1617C4.74214 23.0183 4.62629 22.8467 4.72586 22.6194C4.81979 22.4053 5.01266 22.3696 5.35332 22.5111C6.69403 23.0653 8.03348 23.6201 9.37356 24.1756C9.96095 24.4192 10.2935 24.2808 10.5389 23.689C12.1189 19.8785 13.6969 16.0668 15.2818 12.2582C15.4083 11.9545 15.4096 11.6859 15.268 11.3853C14.5974 9.95941 13.9405 8.5279 13.2805 7.09702C13.1283 6.76701 12.9098 6.50714 12.5322 6.36186C12.4965 6.65805 12.4545 6.93421 12.4351 7.21287C12.4313 7.26923 12.5008 7.34312 12.5534 7.38946C12.9517 7.74014 13.0876 8.27429 12.8935 8.75083C12.695 9.23802 12.2153 9.5267 11.678 9.48287C11.1839 9.44279 10.7619 9.07333 10.6385 8.57237C10.4832 7.9424 10.8884 7.28614 11.5359 7.15025C11.6868 7.11831 11.7444 7.06884 11.7525 6.91605C11.7625 6.71629 11.8001 6.51715 11.8308 6.2792C11.7137 6.31489 11.6267 6.33618 11.5434 6.36812C10.0718 6.9292 8.60145 7.49404 7.12861 8.05199C6.86999 8.14968 6.69841 8.31499 6.59321 8.56986C5.00139 12.4179 3.40581 16.2641 1.81212 20.1115C1.58668 20.655 1.7351 21.0107 2.27551 21.2355C2.67879 21.4033 3.08394 21.5668 3.4866 21.7359C3.75336 21.8473 3.85042 22.0346 3.75774 22.2437C3.67195 22.4378 3.47783 22.4904 3.21607 22.3834C2.77585 22.2036 2.33375 22.0277 1.89728 21.8379C1.13582 21.5079 0.802674 20.7201 1.11891 19.9549C2.73264 16.0486 4.35389 12.1455 5.97326 8.2411C6.13795 7.84471 6.42288 7.57294 6.82302 7.42015C8.32342 6.84654 9.82318 6.27168 11.3242 5.69995C11.4332 5.65863 11.549 5.60289 11.6598 5.60602C11.9185 5.61229 11.9454 5.45887 11.9823 5.25597C12.127 4.45819 12.2704 3.65915 12.4564 2.87075C12.5885 2.31092 12.8559 1.80307 13.2861 1.4023C13.6111 1.09984 13.9918 0.938905 14.4421 1.02156C15.037 1.13115 15.4434 1.60018 15.4941 2.20697C15.5373 2.72923 15.424 3.22581 15.1879 3.67919C14.7809 4.46007 14.335 5.22091 13.9042 5.98926C13.8591 6.06942 13.8052 6.14519 13.7445 6.23975C14.5053 6.48083 15.248 6.71629 15.9907 6.95112C16.2437 7.03127 16.4973 7.10829 16.7484 7.19221C17.1291 7.3187 17.4203 7.55728 17.5944 7.92048C17.905 8.56736 18.2075 9.21798 18.5087 9.86924C18.6157 10.1009 18.5531 10.2951 18.359 10.3846C18.168 10.4729 17.9833 10.3915 17.8724 10.1573C17.585 9.55113 17.297 8.94558 17.0189 8.33503C16.9006 8.07578 16.7183 7.91485 16.4434 7.83094C15.6626 7.59235 14.8861 7.33999 14.0576 7.07698C14.1058 7.19346 14.1346 7.2686 14.1684 7.34124C14.7445 8.58739 15.3144 9.83605 15.9018 11.0766C16.1347 11.5694 16.1385 12.0359 15.9274 12.54C14.7984 15.2377 13.6862 17.9423 12.5622 20.6419C12.4965 20.7991 12.4921 20.9237 12.5672 21.0808C12.9749 21.9319 13.3694 22.7891 13.7702 23.6439C14.01 24.1555 14.3857 24.292 14.8992 24.0522C17.2375 22.9588 19.5757 21.8642 21.9134 20.769C22.4237 20.5298 22.554 20.1572 22.3097 19.6362C21.1093 17.0719 19.9089 14.5082 18.7078 11.9439C18.6746 11.8731 18.6383 11.8042 18.6089 11.7322C18.5199 11.5124 18.5844 11.3145 18.7685 11.2344C18.9564 11.153 19.1443 11.2281 19.2463 11.4441C19.6603 12.3183 20.0686 13.195 20.4787 14.0705C21.2959 15.8151 22.1144 17.5591 22.9309 19.3037C23.3655 20.2323 23.0912 20.9913 22.1632 21.4265C19.84 22.5155 17.5155 23.6026 15.1917 24.689C14.3256 25.0942 13.5416 24.808 13.1346 23.9414C12.8002 23.2294 12.4664 22.5174 12.1145 21.7672C12.0731 21.8486 12.045 21.8968 12.0243 21.9475C11.7701 22.5599 11.4977 23.1655 11.2697 23.7867C11.0487 24.3891 10.698 24.8337 10.0543 24.9984C9.88142 24.999 9.70984 24.999 9.53763 24.999ZM13.1264 5.85651C13.1433 5.84273 13.1671 5.83146 13.1778 5.81267C13.6537 4.96541 14.1428 4.12504 14.5949 3.26464C14.7207 3.02543 14.764 2.73048 14.7953 2.45558C14.8378 2.08361 14.6976 1.85317 14.4302 1.74609C14.1697 1.64151 13.8942 1.71164 13.6756 2.01097C13.4846 2.27147 13.3005 2.55765 13.2047 2.86199C13.0394 3.38675 12.9348 3.93155 12.8227 4.47196C12.7432 4.85708 12.6931 5.24846 12.6317 5.62857C12.8139 5.71311 12.9686 5.78387 13.1264 5.85651ZM11.7976 8.78402C12.0625 8.78277 12.2691 8.57988 12.2742 8.31437C12.2792 8.04009 12.0663 7.82405 11.7926 7.82655C11.5258 7.82906 11.3204 8.03132 11.3161 8.29621C11.311 8.56986 11.5233 8.78465 11.7976 8.78402Z" fill="#504949" stroke="#504949" stroke-width="0.5"/>
<path d="M4.89062 15.9873C4.89438 13.6803 6.42796 11.9902 8.43683 11.7879C10.4582 11.5844 12.2987 12.9646 12.6813 14.976C12.7207 15.182 12.742 15.393 12.7552 15.6028C12.7727 15.879 12.6468 16.0405 12.4258 16.0518C12.2016 16.0631 12.0738 15.9215 12.0563 15.641C11.9561 14.068 11.0143 12.912 9.54522 12.5588C7.70856 12.1173 5.92637 13.3566 5.6189 15.2884C5.33836 17.0512 6.71664 18.7833 8.52951 18.911C9.93472 19.01 10.9867 18.4151 11.6906 17.1959C11.7507 17.0919 11.8315 16.9573 11.9286 16.9297C12.0413 16.8978 12.2085 16.9329 12.3062 17.003C12.4477 17.1044 12.432 17.2748 12.3569 17.4288C12.0895 17.9792 11.7213 18.4527 11.2278 18.8134C9.92846 19.7633 8.52325 19.928 7.08047 19.2198C5.64082 18.5134 4.95512 17.2854 4.89062 15.9873Z" fill="#504949" stroke="#504949" stroke-width="0.2"/>
<path d="M18.2071 14.4581C18.2703 14.5308 18.4087 14.6347 18.4751 14.7731C19.1301 16.1432 19.7726 17.5196 20.4189 18.8942C20.4984 19.0632 20.5811 19.2311 20.6556 19.4026C20.7526 19.6275 20.6963 19.8084 20.5084 19.9017C20.3262 19.9919 20.1289 19.9211 20.0281 19.7076C19.2854 18.1377 18.5446 16.5666 17.8088 14.9935C17.6811 14.7217 17.8433 14.4519 18.2071 14.4581Z" fill="#504949" stroke="#504949" stroke-width="0.5"/>
<path d="M19.1698 20.4746C19.0878 20.5629 19.0132 20.7094 18.9049 20.7414C18.796 20.7739 18.6457 20.7088 18.5292 20.6543C18.4716 20.6274 18.4434 20.5291 18.4108 20.4589C17.6976 18.9442 16.985 17.4281 16.2736 15.9127C16.241 15.8432 16.2066 15.7693 16.1959 15.6948C16.1709 15.5182 16.2504 15.3904 16.4145 15.3247C16.5723 15.2614 16.7069 15.3103 16.8096 15.438C16.8528 15.4913 16.8798 15.5589 16.9098 15.6221C17.6206 17.13 18.3313 18.6379 19.0402 20.1458C19.0828 20.2354 19.1141 20.3318 19.1698 20.4746Z" fill="#504949" stroke="#504949" stroke-width="0.5"/>
<path d="M7.02729 15.6935C6.96968 15.6847 6.89579 15.6515 6.84256 15.671C6.83004 15.6697 6.81877 15.6509 6.80436 15.6672C6.75677 15.6628 6.70918 15.6685 6.66534 15.6891C6.64092 15.6747 6.63591 15.7029 6.62088 15.7142C6.58394 15.7242 6.5664 15.7805 6.54637 15.8125C6.50691 16.1256 6.92272 16.3059 7.15692 16.4243C7.15817 16.4287 7.1613 16.4305 7.16568 16.4299C7.22893 16.4706 7.30909 16.5126 7.38047 16.527C7.38235 16.5314 7.38548 16.5326 7.38987 16.532C7.42431 16.5564 7.47628 16.5777 7.51448 16.5765C7.50822 16.5852 7.52325 16.5927 7.52951 16.5965C7.57648 16.6353 7.50133 16.6554 7.48067 16.6766C7.39989 16.7004 7.31409 16.713 7.23081 16.7199C7.20326 16.7098 7.1757 16.7061 7.14815 16.7192C7.14377 16.718 7.14001 16.7167 7.13563 16.7161C7.07301 16.7029 7.00287 16.6854 6.939 16.6829C6.69603 16.5865 6.47873 16.4399 6.29964 16.2515C6.29588 16.2239 6.28148 16.2045 6.25831 16.1888C6.25768 16.1682 6.25267 16.1506 6.23326 16.1394C6.20195 16.0774 6.18254 16.0116 6.17628 15.9421C6.18254 15.934 6.18066 15.9271 6.17315 15.9208C6.15624 15.8501 6.18567 15.7818 6.19131 15.7173C6.21635 15.6271 6.27334 15.5539 6.32469 15.4787C6.37666 15.4493 6.42363 15.386 6.48813 15.3541C6.49627 15.3566 6.50253 15.3522 6.50879 15.3472C6.52257 15.3478 6.53259 15.3428 6.53822 15.3303C6.54699 15.3265 6.55576 15.3222 6.56453 15.3184C6.57267 15.3234 6.5783 15.3203 6.58331 15.314L6.58456 15.3134C6.59834 15.3153 6.614 15.3046 6.62339 15.2952C6.62652 15.294 6.62965 15.2927 6.63278 15.2921C6.67662 15.2921 6.72546 15.2927 6.76804 15.2758C6.83066 15.2689 6.9033 15.299 6.96279 15.284C7.1112 15.3203 7.26275 15.3635 7.41116 15.3986C7.43495 15.4123 7.45374 15.4324 7.4838 15.4261C7.50759 15.4405 7.52575 15.4612 7.55644 15.4537C7.58524 15.4674 7.60653 15.4962 7.64223 15.4887C7.79126 15.557 7.94468 15.6278 8.09685 15.681C8.15697 15.7092 8.21959 15.7567 8.28158 15.7599C8.31978 15.7737 8.35109 15.8131 8.39305 15.8106C8.4181 15.8206 8.44189 15.8526 8.45817 15.8156C8.54083 15.6829 8.62349 15.5501 8.70553 15.4173C8.71617 15.4017 8.70803 15.3923 8.69363 15.3898C8.36111 15.2645 8.03674 15.0942 7.70046 14.9871C7.69232 14.9803 7.68356 14.9759 7.67354 14.9734C7.65726 14.9571 7.63221 14.9646 7.61405 14.9533C7.59401 14.9452 7.57961 14.9226 7.55518 14.932C7.54704 14.9251 7.53828 14.9208 7.52763 14.9189C7.51448 14.9064 7.49883 14.9039 7.48192 14.9064C7.47378 14.9001 7.46438 14.8945 7.45437 14.892C7.44497 14.8826 7.43433 14.8807 7.42243 14.8857C7.41429 14.8794 7.40489 14.875 7.39488 14.8725C7.38548 14.8625 7.37484 14.8619 7.36294 14.8669C7.34165 14.86 7.32787 14.8381 7.30282 14.8481C7.29907 14.8444 7.29406 14.8419 7.28842 14.8419C7.27151 14.8287 7.24709 14.8381 7.23018 14.8243C7.22267 14.8174 7.21578 14.8212 7.20889 14.8256C7.10118 14.8043 6.98659 14.7987 6.87951 14.8362C6.71607 14.8563 6.65094 14.8938 6.77243 14.7129C6.86698 14.5475 7.07614 14.4987 7.25398 14.4918C7.26149 14.4968 7.26776 14.4937 7.27402 14.4887C7.28278 14.4962 7.28967 14.4924 7.29656 14.4855C7.29969 14.4887 7.30345 14.4912 7.30846 14.4906C7.3166 14.4987 7.32349 14.4937 7.32975 14.4881C7.331 14.4899 7.33288 14.4912 7.33539 14.4899C7.37922 14.4949 7.42368 14.5006 7.46501 14.5C7.5101 14.5118 7.56082 14.5313 7.60653 14.5338C7.60966 14.5375 7.61342 14.54 7.61843 14.54C7.63221 14.5519 7.64786 14.5582 7.66665 14.5532C7.66978 14.5569 7.67354 14.5594 7.67855 14.5588C7.69232 14.5707 7.70798 14.5776 7.72677 14.572C7.7299 14.5757 7.73365 14.5782 7.73866 14.5782C7.81757 14.6127 7.89396 14.6289 7.97913 14.659C7.94218 14.6095 7.91337 14.5651 7.87831 14.5225C7.87956 14.5125 7.87768 14.505 7.86704 14.5006C7.81882 14.3935 7.76309 14.2839 7.7587 14.1637C7.76434 14.1555 7.76183 14.1486 7.7562 14.1424C7.74743 14.123 7.76684 14.1036 7.75494 14.0873C7.75307 14.0284 7.77624 13.9708 7.79001 13.9126L7.79189 13.9119L7.79126 13.9101C8.15384 13.2551 8.95413 13.8105 9.44883 13.9877C9.49079 14.0071 9.55153 14.0766 9.57846 14.0071C9.60977 13.9195 9.83082 13.6777 9.7826 13.6208C9.71434 13.5788 9.50707 13.4805 9.69305 13.4486C9.95293 13.3797 10.2166 13.3252 10.4802 13.282L10.4814 13.2839C10.6299 13.2657 10.8071 13.3665 10.6393 13.4993C10.5165 13.6195 10.3086 13.5869 10.1946 13.7091C10.0938 13.855 9.988 13.999 9.90847 14.1574C9.87591 14.185 10.0262 14.2269 10.0494 14.2326C10.4195 14.4135 10.8403 14.6415 11.2435 14.4185C11.273 14.4267 11.3018 14.3979 11.3318 14.4179C11.375 14.4586 11.4352 14.4812 11.4853 14.515C11.4727 14.5532 11.4427 14.5814 11.4239 14.6164C11.4195 14.6177 11.417 14.6208 11.417 14.6252C11.397 14.6239 11.3913 14.6408 11.3826 14.6534L11.3801 14.654V14.6565C11.3631 14.654 11.3575 14.6665 11.3506 14.6778C11.3462 14.679 11.3437 14.6816 11.3431 14.6866C11.3281 14.6816 11.3231 14.6928 11.3168 14.7022L11.3143 14.7028V14.7053C11.3005 14.7003 11.2943 14.7104 11.2886 14.7197C11.1014 14.8287 10.8935 14.9007 10.6743 14.8888C10.6656 14.8819 10.6568 14.8813 10.648 14.8882C10.6349 14.8869 10.6248 14.8688 10.6142 14.8832C10.6098 14.8801 10.6054 14.8782 10.6004 14.8788C10.5867 14.8663 10.571 14.865 10.5541 14.8675C10.4708 14.8275 10.3781 14.8049 10.2955 14.7642C10.2861 14.7573 10.2761 14.7492 10.2635 14.7573C10.2598 14.7536 10.2554 14.7511 10.2498 14.7511C10.2203 14.7291 10.1878 14.7141 10.1508 14.7079C10.1433 14.701 10.1339 14.696 10.1239 14.6934C10.1007 14.669 10.065 14.6759 10.0393 14.6584C10.0193 14.6471 9.99927 14.6221 9.97359 14.6302C9.94166 14.6221 9.91285 14.582 9.88154 14.5914C9.87778 14.5876 9.8734 14.5857 9.86777 14.5857C9.8327 14.5638 9.79888 14.5388 9.75568 14.535C9.71685 14.515 9.6893 14.4762 9.66675 14.5319C9.53838 14.7492 9.39561 14.959 9.27663 15.1806C9.26723 15.1919 9.25972 15.2345 9.28477 15.2138C9.66926 15.3723 10.0406 15.6422 10.4633 15.6772C10.6042 15.6922 11.2135 15.4505 11.1878 15.6747C10.6092 16.3767 9.7062 15.8475 9.06309 15.5395C8.951 15.6415 8.87585 15.8357 8.78255 15.9709C8.87523 16.021 8.97417 16.0655 9.07311 16.103C9.42504 16.2533 9.77697 16.4976 10.1702 16.5026C10.37 16.4863 10.5729 16.3629 10.772 16.4312C10.8158 16.48 10.715 16.5552 10.6793 16.589C10.509 16.7806 10.251 16.8557 10.0112 16.8733C9.96358 16.8645 9.90784 16.8501 9.86276 16.8557C9.84961 16.8539 9.83959 16.8338 9.82832 16.8501H9.82769C9.82456 16.8463 9.82017 16.8445 9.81516 16.8451C9.78448 16.8288 9.74127 16.8075 9.70934 16.8138C9.68554 16.8056 9.663 16.7781 9.63732 16.7862C9.54151 16.7386 9.44195 16.6904 9.33987 16.6597C9.25158 16.604 9.15076 16.5821 9.06246 16.5276C9.0537 16.5201 9.04493 16.5126 9.03241 16.5201C9.02802 16.5163 9.02364 16.5138 9.01738 16.5138C8.97918 16.5001 8.94787 16.45 8.90654 16.4606C8.86333 16.4437 8.83139 16.3986 8.78192 16.4024C8.74811 16.3917 8.7193 16.3466 8.68298 16.3585C8.64729 16.3448 8.60784 16.299 8.57277 16.3028C8.50138 16.4105 8.43876 16.5245 8.36925 16.6334C8.06304 17.0912 7.81005 17.6003 7.48442 18.0374C7.47628 18.0343 7.46877 18.0336 7.46251 18.0405C7.46125 18.0393 7.45812 18.0374 7.45687 18.0368C7.33225 18.0493 7.20388 18.0768 7.09304 18.1351C7.07551 18.1319 7.05986 18.1445 7.04295 18.1432C7.03856 18.1401 7.03418 18.137 7.0298 18.1338C7.42932 17.4845 7.82946 16.8344 8.23211 16.187C8.24714 16.1613 8.24714 16.1594 8.22209 16.1519C8.17388 16.1456 8.14069 16.0999 8.09122 16.1005C8.05928 16.0849 8.02922 16.0529 7.99228 16.0554C7.79126 15.9596 7.58211 15.8726 7.37233 15.7975C7.25836 15.758 7.14064 15.6847 7.02729 15.6935ZM8.48009 14.0146C8.26781 13.9263 8.04488 14.0654 8.18139 14.2958C8.26029 14.5519 8.53582 14.6934 8.62913 14.9327C8.68611 14.9552 8.91468 15.1237 8.93284 15.0466C9.07061 14.8287 9.20086 14.6064 9.34113 14.3922C9.35302 14.349 9.25721 14.3221 9.21964 14.3127C9.18144 14.2946 9.14512 14.2507 9.10192 14.2564C9.05119 14.2294 9.00423 14.1887 8.94286 14.1944C8.889 14.1656 8.83452 14.1217 8.77128 14.1242C8.71868 14.0967 8.66044 14.0447 8.60032 14.0528C8.56275 14.0359 8.52267 13.9952 8.48009 14.0146Z" fill="#504949" stroke="#504949" stroke-width="0.2"/>
</svg>
