<svg width="24" height="24" viewBox="0 0 24 24" fill="none" xmlns="http://www.w3.org/2000/svg">
<g clip-path="url(#clip0_3287_28732)">
<path d="M17.4016 8.91568C16.4091 8.91568 15.4348 8.91568 14.4475 8.91568C14.211 9.84027 13.6405 10.4101 12.663 10.3979C11.7164 10.3862 11.1685 9.81895 10.932 8.90987C10.472 8.90987 10.0139 8.91116 9.55578 8.90987C8.69644 8.90664 8.13109 8.34581 8.13497 7.48518C8.13755 6.97022 8.113 6.44881 8.18278 5.94161C8.33785 4.81995 9.3193 3.96772 10.4506 3.93412C10.9087 3.92055 11.206 3.72155 11.3739 3.29576C11.5717 2.79437 11.7758 2.29493 11.9994 1.80452C12.5208 0.660897 13.426 0.0619471 14.675 0.0218879C15.6008 -0.00783348 16.5293 -0.00654125 17.4552 0.0212418C18.7151 0.0587165 19.6249 0.663482 20.1508 1.81422C20.3782 2.31172 20.5792 2.82151 20.7833 3.32871C20.9429 3.72478 21.2279 3.91668 21.6543 3.93154C22.9343 3.97612 23.9629 5.02089 23.9933 6.30473C24.0036 6.73181 24.0023 7.15889 23.9945 7.58597C23.981 8.32449 23.4072 8.89694 22.6661 8.90793C22.0866 8.91633 21.5063 8.90987 20.9197 8.90987C20.6696 9.82929 20.0991 10.3733 19.1306 10.3824C18.2958 10.3908 17.7472 9.9023 17.4016 8.91568ZM14.3997 8.13582C15.3941 8.13582 16.3691 8.1384 17.3441 8.13C17.4067 8.12936 17.4991 8.05958 17.5269 7.9982C17.8493 7.2907 18.3953 6.89334 19.17 6.89398C19.9337 6.89463 20.4829 7.28359 20.7898 7.98657C20.8415 8.10481 20.8996 8.13905 21.0205 8.13776C21.5522 8.13194 22.0846 8.13905 22.6164 8.13388C22.9931 8.13065 23.2166 7.90645 23.2218 7.53041C23.227 7.13563 23.227 6.74021 23.2218 6.34543C23.2095 5.41955 22.5356 4.73337 21.6104 4.6959C20.879 4.66617 20.3608 4.32309 20.0758 3.64143C19.8684 3.14392 19.6694 2.64254 19.4523 2.1489C19.0634 1.26437 18.3798 0.801104 17.4132 0.78689C16.519 0.773321 15.6235 0.774614 14.7292 0.786244C13.7633 0.799166 13.0758 1.25726 12.6823 2.13921C12.482 2.58697 12.2888 3.03925 12.117 3.49864C11.8236 4.28303 11.2751 4.68427 10.4345 4.70365C10.103 4.7114 9.80518 4.83739 9.54802 5.06741C9.98674 5.34395 10.0681 5.49449 10.0681 6.00945C10.0681 6.20264 10.0727 6.39647 10.0669 6.58966C10.0533 7.02773 9.73475 7.34562 9.29733 7.36048C9.17134 7.365 9.0447 7.36113 8.92129 7.36113C8.88705 7.85088 9.08088 8.1229 9.47049 8.1313C9.98609 8.14228 10.5017 8.13388 11.0199 8.13388C11.3274 7.3411 11.8883 6.87783 12.7431 6.8914C13.563 6.90561 14.1038 7.36113 14.3997 8.13582ZM12.692 7.65252C12.1331 7.64671 11.6725 8.09318 11.6647 8.64884C11.6563 9.21677 12.1118 9.68004 12.6823 9.68262C13.2309 9.68521 13.6858 9.24326 13.6954 8.69729C13.7051 8.12354 13.2587 7.65834 12.692 7.65252ZM18.1375 8.65465C18.1336 9.22776 18.5853 9.68327 19.1571 9.68262C19.7043 9.68198 20.1566 9.23874 20.1682 8.69148C20.1799 8.12613 19.7211 7.65511 19.1558 7.65188C18.5943 7.64865 18.1414 8.09447 18.1375 8.65465ZM9.28505 5.82466C8.95101 5.80722 8.8444 6.04886 8.93421 6.57222C9.04922 6.57222 9.16423 6.57222 9.28505 6.57222C9.28505 6.31829 9.28505 6.07988 9.28505 5.82466Z" fill="#504949"/>
<path d="M0.797791 23.2149C3.6336 23.2149 6.45131 23.2149 9.28647 23.2149C9.28647 22.1915 9.28647 21.1797 9.28647 20.1491C9.54815 20.1491 9.79238 20.1491 10.0541 20.1491C10.0586 20.2157 10.067 20.2854 10.067 20.3552C10.0676 21.3948 10.0683 22.4344 10.0676 23.474C10.0676 23.8727 9.94357 24 9.55396 24C6.54047 24.0006 3.52634 24.0006 0.512854 24C0.136814 24 0.00888302 23.8701 0.00888302 23.4889C0.00759079 19.3143 0.00759079 15.1398 0.0082369 10.9659C0.0082369 10.5859 0.136168 10.458 0.514792 10.458C3.52828 10.4574 6.54241 10.4574 9.5559 10.458C9.93711 10.458 10.0663 10.5859 10.067 10.962C10.0683 11.6863 10.0676 12.4099 10.0676 13.1504C9.80853 13.1504 9.5643 13.1504 9.30198 13.1504C9.30198 12.5204 9.30198 11.8943 9.30198 11.2508C6.461 11.2508 3.63812 11.2508 0.798437 11.2508C0.797791 15.2296 0.797791 19.2129 0.797791 23.2149Z" fill="#504949"/>
<path d="M18.4002 13.9399C20.8296 13.938 22.8352 15.9429 22.8352 18.3729C22.8352 20.8418 20.8438 22.8389 18.3841 22.837C15.9217 22.8357 13.9414 20.845 13.9375 18.3684C13.9336 15.9326 15.9398 13.9425 18.4002 13.9399ZM22.0618 18.3969C22.0598 16.3642 20.4129 14.7101 18.3944 14.714C16.3488 14.7185 14.7096 16.3609 14.7116 18.4053C14.7135 20.4237 16.3708 22.0668 18.4028 22.0642C20.4097 22.0629 22.0637 20.405 22.0618 18.3969Z" fill="#504949"/>
<path d="M13.106 16.0449C12.8624 15.9041 12.6543 15.7839 12.4333 15.656C12.7273 15.1442 13.0148 14.6442 13.3037 14.1421C12.9586 13.989 12.9593 13.9896 12.7822 14.2965C12.1911 15.3213 11.5902 16.3402 11.0132 17.3734C10.7689 17.8101 10.4685 18.1875 10.0854 18.5034C9.68153 18.8368 9.27771 19.1696 8.87518 19.5042C8.72399 19.6296 8.56052 19.6696 8.38607 19.5643C8.22066 19.4648 8.1819 19.3098 8.21291 19.125C8.30401 18.5855 8.38349 18.044 8.4817 17.5058C8.55988 17.0761 8.7143 16.6768 8.9385 16.295C9.82239 14.7889 10.6882 13.2724 11.5611 11.7592C11.8861 11.1958 12.2673 11.0905 12.8249 11.4097C13.0064 11.5137 13.1919 11.6113 13.3689 11.7231C13.7456 11.9608 13.8554 12.3782 13.648 12.7749C13.5556 12.9513 13.4529 13.1219 13.3405 13.3209C13.5763 13.3707 13.7876 13.4088 13.995 13.4611C14.2612 13.5277 14.3995 13.7661 14.2741 13.9955C13.8987 14.6771 13.504 15.3491 13.106 16.0449ZM11.7265 13.0224C11.0112 14.261 10.3089 15.477 9.59948 16.7059C9.83789 16.8422 10.0505 16.9637 10.2727 17.091C10.9886 15.8517 11.6903 14.6364 12.3985 13.4101C12.1678 13.2763 11.9597 13.1568 11.7265 13.0224ZM12.1174 12.3401C12.3519 12.4751 12.5632 12.5979 12.7874 12.7271C12.8578 12.6057 12.9153 12.5055 12.9813 12.3918C12.748 12.2574 12.5354 12.1353 12.3132 12.0074C12.2492 12.1178 12.1923 12.2135 12.1174 12.3401ZM9.80559 17.7235C9.62403 17.6176 9.47025 17.5278 9.28934 17.4231C9.23184 17.7171 9.18079 17.9807 9.1291 18.2437C9.14526 18.2527 9.16141 18.2624 9.17821 18.2715C9.3798 18.0957 9.58074 17.92 9.80559 17.7235Z" fill="#504949"/>
<path d="M2.72656 13.1755C4.65716 13.1755 6.5716 13.1755 8.50155 13.1755C8.50155 13.4249 8.50155 13.6692 8.50155 13.927C6.57806 13.927 4.65845 13.927 2.72656 13.927C2.72656 13.6789 2.72656 13.4404 2.72656 13.1755Z" fill="#504949"/>
<path d="M8.50801 20.9211C8.50801 21.1757 8.50801 21.4141 8.50801 21.6648C6.57742 21.6648 4.6578 21.6648 2.72656 21.6648C2.72656 21.4154 2.72656 21.1764 2.72656 20.9211C4.64747 20.9211 6.56708 20.9211 8.50801 20.9211Z" fill="#504949"/>
<path d="M7.73273 17.7958C6.06446 17.7958 4.40846 17.7958 2.73438 17.7958C2.73438 17.5516 2.73438 17.3073 2.73438 17.0476C4.39554 17.0476 6.05735 17.0476 7.73273 17.0476C7.73273 17.2912 7.73273 17.5296 7.73273 17.7958Z" fill="#504949"/>
<path d="M16.09 4.54088C15.188 4.54088 14.2847 4.51762 13.3834 4.54799C12.5544 4.57577 12.2656 3.78686 12.6236 3.2409C12.8969 2.8248 13.1211 2.37639 13.3685 1.94349C13.7394 1.2935 14.3041 0.958167 15.0478 0.945245C15.7404 0.932968 16.4337 0.931676 17.1257 0.945245C17.8591 0.959459 18.4199 1.28704 18.7895 1.92734C19.0473 2.37316 19.3077 2.81769 19.5609 3.26609C19.9324 3.92513 19.5758 4.5383 18.8205 4.54088C17.9101 4.54347 17.0004 4.54088 16.09 4.54088ZM16.1462 1.72769C15.7191 1.72769 15.3172 1.71089 14.9179 1.73221C14.538 1.75224 14.255 1.95706 14.0657 2.28787C13.8699 2.62967 13.6735 2.97147 13.4784 3.31391C13.4009 3.44959 13.3246 3.58528 13.2348 3.74487C14.2318 3.74487 15.1848 3.74487 16.1462 3.74487C16.1462 3.06968 16.1462 2.41128 16.1462 1.72769ZM16.9454 1.72252C16.9454 2.40805 16.9454 3.07161 16.9454 3.74358C17.6032 3.74358 18.2493 3.74358 18.9348 3.74358C18.6518 3.24736 18.3843 2.7828 18.1207 2.3163C17.8675 1.86596 17.4746 1.69216 16.9454 1.72252Z" fill="#504949"/>
<path d="M21.2886 19.3466C21.0185 19.3466 20.7801 19.3466 20.5236 19.3466C20.5236 19.0985 20.5236 18.8595 20.5236 18.6017C20.2619 18.6017 20.0176 18.6017 19.7463 18.6017C19.7463 18.842 19.7463 19.0875 19.7463 19.344C19.4814 19.344 19.243 19.344 18.9774 19.344C18.9774 19.1024 18.9774 18.8575 18.9774 18.5836C18.5755 18.5836 18.1995 18.5745 17.8247 18.5926C17.7621 18.5958 17.6916 18.707 17.647 18.7813C17.3505 19.2743 16.7535 19.4836 16.2204 19.2736C15.6964 19.0675 15.3882 18.5047 15.5052 17.9659C15.6299 17.3921 16.139 16.9967 16.7192 17.0387C17.134 17.0691 17.4564 17.27 17.6529 17.637C17.7246 17.7701 17.7989 17.8134 17.9475 17.8127C18.8902 17.8056 19.8335 17.8082 20.7762 17.8095C21.158 17.8102 21.2873 17.9368 21.2892 18.3122C21.2892 18.6495 21.2886 18.9867 21.2886 19.3466ZM16.6352 17.8102C16.4278 17.8153 16.2579 17.9924 16.2598 18.1991C16.2618 18.4072 16.4349 18.5797 16.6423 18.581C16.8588 18.5823 17.0391 18.3955 17.03 18.1797C17.0223 17.9723 16.8426 17.805 16.6352 17.8102Z" fill="#504949"/>
</g>
<defs>
<clipPath id="clip0_3287_28732">
<rect width="23.9929" height="24" fill="white" transform="translate(0.0078125)"/>
</clipPath>
</defs>
</svg>
