<svg width="36" height="36" viewBox="0 0 36 36" fill="none" xmlns="http://www.w3.org/2000/svg">
<g filter="url(#filter0_d_3459_29507)">
<g clip-path="url(#clip0_3459_29507)">
<path d="M8.04688 18.8136C8.04688 15.9909 8.04688 13.0636 8.04688 10.2409C8.04688 9.09086 8.77869 8.2545 9.82415 8.04541C10.0332 8.04541 10.1378 8.04541 10.2423 8.04541C14.6332 8.04541 19.1287 8.04541 23.5196 8.04541C24.1469 8.04541 24.6696 8.2545 25.0878 8.56814C25.9241 9.29996 26.656 10.1363 27.4923 10.9727C27.9105 11.3909 28.0151 11.809 28.0151 12.4363C28.0151 17.4545 28.0151 22.4727 28.0151 27.4909C28.0151 28.6409 27.0742 29.5818 25.9241 29.6863C25.8196 29.6863 25.7151 29.6863 25.7151 29.6863C20.5923 29.6863 15.4696 29.6863 10.3469 29.6863C9.82415 29.6863 9.30142 29.5818 8.88324 29.2681C8.25597 28.85 8.04688 28.2227 8.04688 27.4909C8.04688 24.5636 8.04688 21.6363 8.04688 18.8136ZM24.1469 28.4318C24.7741 28.4318 25.2969 28.4318 25.8196 28.4318C26.4469 28.4318 26.8651 28.0136 26.8651 27.3863C26.8651 22.3681 26.8651 17.4545 26.8651 12.4363C26.8651 12.1227 26.7605 11.9136 26.5514 11.7045C25.8196 10.9727 25.0878 10.1363 24.2514 9.4045C23.9378 9.09086 23.6241 9.09086 23.3105 9.19541C23.3105 10.7636 23.3105 12.3318 23.3105 14.0045C23.3105 14.9454 22.6832 15.4681 21.8469 15.4681C19.3378 15.4681 16.7241 15.4681 14.2151 15.4681C13.2741 15.4681 12.7514 14.9454 12.7514 14.0045C12.7514 12.5409 12.7514 10.9727 12.7514 9.50905C12.7514 9.4045 12.7514 9.29996 12.7514 9.19541C11.9151 9.19541 11.1832 9.19541 10.3469 9.19541C9.61506 9.19541 9.19688 9.61359 9.19688 10.3454C9.19688 14.4227 9.19688 18.3954 9.19688 22.4727C9.19688 24.1454 9.19688 25.8181 9.19688 27.3863C9.19688 28.0136 9.61506 28.4318 10.2423 28.4318C10.6605 28.4318 10.9741 28.4318 11.3923 28.4318C11.6014 28.4318 11.8105 28.4318 12.0196 28.4318C12.0196 28.3272 12.0196 28.2227 12.0196 28.1181C12.0196 25.609 12.0196 23.1 12.0196 20.5909C12.0196 19.65 12.5423 19.1272 13.4832 19.1272C16.5151 19.1272 19.5469 19.1272 22.5787 19.1272C23.5196 19.1272 24.0423 19.65 24.0423 20.5909C24.0423 23.1 24.0423 25.609 24.0423 28.1181C24.1469 28.2227 24.1469 28.3272 24.1469 28.4318ZM22.8923 28.4318C22.8923 28.3272 22.8923 28.3272 22.8923 28.3272C22.8923 25.7136 22.8923 23.1 22.8923 20.5909C22.8923 20.2772 22.8923 20.2772 22.5787 20.2772C19.5469 20.2772 16.5151 20.2772 13.4832 20.2772C13.1696 20.2772 13.1696 20.2772 13.1696 20.6954C13.1696 23.2045 13.1696 25.8181 13.1696 28.3272C13.1696 28.4318 13.1696 28.4318 13.1696 28.5363C16.4105 28.4318 19.6514 28.4318 22.8923 28.4318ZM13.9014 9.19541C13.9014 9.29996 13.9014 9.29996 13.9014 9.4045C13.9014 10.8681 13.9014 12.4363 13.9014 13.9C13.9014 14.3181 14.006 14.3181 14.3196 14.3181C16.8287 14.3181 19.3378 14.3181 21.8469 14.3181C22.1605 14.3181 22.1605 14.3181 22.1605 14.0045C22.1605 12.5409 22.1605 10.9727 22.1605 9.50905C22.1605 9.4045 22.1605 9.4045 22.1605 9.29996C19.4423 9.19541 16.7241 9.19541 13.9014 9.19541Z" fill="#39629C" stroke="#39629C" stroke-width="0.2"/>
<path d="M18.0826 23.7271C17.3508 23.7271 16.619 23.7271 15.7826 23.7271C15.3644 23.7271 15.0508 23.5181 15.0508 23.0999C15.0508 22.7862 15.3644 22.5771 15.7826 22.5771C17.2462 22.5771 18.8144 22.5771 20.2781 22.5771C20.6962 22.5771 20.9053 22.7862 21.0099 23.2044C21.0099 23.5181 20.6962 23.8317 20.2781 23.8317C19.5462 23.7271 18.8144 23.7271 18.0826 23.7271Z" fill="#39629C"/>
<path d="M18.0826 26.1317C17.3508 26.1317 16.619 26.1317 15.7826 26.1317C15.3644 26.1317 15.0508 25.9227 15.0508 25.5045C15.0508 25.1908 15.3644 24.9817 15.7826 24.8772C17.2462 24.8772 18.8144 24.8772 20.2781 24.8772C20.6962 24.8772 20.9053 25.0863 21.0099 25.5045C21.0099 25.8181 20.6962 26.1317 20.2781 26.1317C19.5462 26.1317 18.8144 26.1317 18.0826 26.1317Z" fill="#39629C"/>
</g>
</g>
<defs>
<filter id="filter0_d_3459_29507" x="-4" y="-2" width="44" height="44" filterUnits="userSpaceOnUse" color-interpolation-filters="sRGB">
<feFlood flood-opacity="0" result="BackgroundImageFix"/>
<feColorMatrix in="SourceAlpha" type="matrix" values="0 0 0 0 0 0 0 0 0 0 0 0 0 0 0 0 0 0 127 0" result="hardAlpha"/>
<feOffset dy="2"/>
<feGaussianBlur stdDeviation="2"/>
<feComposite in2="hardAlpha" operator="out"/>
<feColorMatrix type="matrix" values="0 0 0 0 1 0 0 0 0 0.588235 0 0 0 0 0.14902 0 0 0 0.24 0"/>
<feBlend mode="normal" in2="BackgroundImageFix" result="effect1_dropShadow_3459_29507"/>
<feBlend mode="normal" in="SourceGraphic" in2="effect1_dropShadow_3459_29507" result="shape"/>
</filter>
<clipPath id="clip0_3459_29507">
<rect width="21.9545" height="23" fill="white" transform="translate(7 7)"/>
</clipPath>
</defs>
</svg>
