<svg width="32" height="32" viewBox="0 0 32 32" fill="none" xmlns="http://www.w3.org/2000/svg">
<g filter="url(#filter0_d_3520_3393)">
<path d="M4 11C4 6.58172 7.58172 3 12 3H20C24.4183 3 28 6.58172 28 11V19C28 23.4183 24.4183 27 20 27H12C7.58172 27 4 23.4183 4 19V11Z" fill="white"/>
<g clip-path="url(#clip0_3520_3393)">
<path d="M11.0583 6C14.4811 6 17.8992 6 21.322 6C21.3782 6.05158 21.4345 6.09846 21.4861 6.15004C22.0909 6.75488 22.6958 7.35973 23.3006 7.95989C23.4038 8.06304 23.4459 8.17557 23.4459 8.32092C23.4459 12.7986 23.4459 17.2717 23.4459 21.7494C23.4459 22.0307 23.3569 22.1198 23.0802 22.1198C22.6254 22.1198 22.1659 22.1245 21.7111 22.1151C21.5939 22.1151 21.5658 22.148 21.5658 22.2605C21.5705 22.7059 21.5611 23.1513 21.5705 23.5968C21.5751 23.7703 21.5283 23.9015 21.3923 24C17.3272 24 13.262 24 9.19224 24C9.04689 23.9156 9 23.789 9 23.6202C9.00469 18.4954 9 13.3754 9.00469 8.25059C9.00469 7.97395 9.09377 7.88487 9.3751 7.88487C9.8299 7.88487 10.2894 7.88018 10.7442 7.88955C10.8614 7.88955 10.8896 7.85673 10.8849 7.7442C10.8802 7.29878 10.8896 6.85335 10.8802 6.40792C10.8755 6.23444 10.9177 6.09846 11.0583 6ZM9.56734 15.9307C9.56734 18.3782 9.56734 20.8257 9.56734 23.2732C9.56734 23.3811 9.57202 23.4374 9.71269 23.4374C13.4308 23.4327 17.149 23.4327 20.8718 23.4374C20.9891 23.4374 21.0125 23.4045 21.0125 23.292C21.0078 19.0393 21.0078 14.7867 21.0125 10.534C21.0125 10.4027 20.9656 10.384 20.8531 10.3886C20.3795 10.3933 19.906 10.3933 19.4277 10.3886C19.1605 10.3886 19.0667 10.2949 19.0667 10.0323C19.0667 9.56812 19.062 9.10862 19.0714 8.64444C19.0761 8.48971 19.0386 8.43813 18.8744 8.43813C15.8408 8.44282 12.8072 8.44282 9.77364 8.43813C9.61891 8.43813 9.57202 8.47096 9.57202 8.63506C9.56734 11.0732 9.56734 13.502 9.56734 15.9307ZM21.5658 15.7713C21.5658 17.6468 21.5658 19.5223 21.5611 21.3931C21.5611 21.5244 21.5939 21.5619 21.7252 21.5572C22.0393 21.5478 22.3582 21.5431 22.6723 21.5572C22.8364 21.5666 22.888 21.5244 22.8833 21.3509C22.8786 19.0253 22.8786 16.6997 22.8786 14.3741C22.8786 12.4892 22.8739 10.5996 22.8833 8.71477C22.8833 8.52722 22.8317 8.4944 22.6582 8.49909C22.2128 8.51315 21.7674 8.50378 21.322 8.50378C21.0125 8.50378 20.9328 8.41938 20.9328 8.10524C20.9328 7.65043 20.9234 7.19094 20.9375 6.73613C20.9422 6.5814 20.8906 6.55796 20.7546 6.56265C19.6387 6.56734 18.5181 6.56265 17.4022 6.56265C15.4751 6.56265 13.5481 6.56265 11.621 6.55796C11.4756 6.55796 11.4381 6.59547 11.4428 6.74082C11.4569 7.05496 11.4569 7.3738 11.4428 7.68794C11.4334 7.85204 11.485 7.88487 11.6444 7.88487C14.167 7.88018 16.6942 7.88018 19.2167 7.88018C19.3855 7.88018 19.5121 7.93175 19.634 8.05366C20.2154 8.64444 20.8062 9.23522 21.397 9.81662C21.5189 9.93853 21.5705 10.0651 21.5705 10.2339C21.5658 12.0813 21.5658 13.9239 21.5658 15.7713ZM22.391 7.94113C22.0956 7.64574 21.7861 7.33629 21.5001 7.05496C21.5001 7.28471 21.5001 7.55666 21.5001 7.83329C21.5001 7.89424 21.4954 7.94582 21.5845 7.94582C21.8705 7.94113 22.1519 7.94113 22.391 7.94113ZM19.6246 8.88825C19.6246 9.17426 19.6246 9.45559 19.6246 9.7416C19.6246 9.79786 19.634 9.83069 19.6997 9.83069C19.9904 9.83069 20.2764 9.83069 20.5577 9.83069C20.2482 9.51654 19.9435 9.21177 19.6246 8.88825Z" fill="#39629C" stroke="#39629C" stroke-width="0.3"/>
<path d="M15.2979 18.9736C16.4419 18.9736 17.5813 18.9736 18.7253 18.9736C19.0254 18.9736 19.1145 19.058 19.1145 19.3581C19.1145 19.9958 19.1145 20.6334 19.1145 21.2758C19.1145 21.5431 19.0207 21.6368 18.7582 21.6368C16.4466 21.6368 14.1304 21.6368 11.8188 21.6368C11.5469 21.6368 11.4531 21.5384 11.4531 21.2617C11.4531 20.6241 11.4531 19.9864 11.4531 19.344C11.4531 19.0721 11.5516 18.9736 11.8235 18.9736C12.9816 18.9736 14.1398 18.9736 15.2979 18.9736ZM15.2557 21.0742C16.306 21.0742 17.3515 21.0742 18.4018 21.0742C18.5097 21.0742 18.5565 21.0554 18.5518 20.9335C18.5425 20.5115 18.5425 20.0895 18.5518 19.6676C18.5518 19.555 18.519 19.5316 18.4159 19.5363C16.3247 19.541 14.2335 19.541 12.1424 19.5363C12.0298 19.5363 12.0064 19.5691 12.0111 19.6769C12.0158 20.0849 12.0205 20.4975 12.0111 20.9054C12.0064 21.046 12.0486 21.0789 12.1846 21.0789C13.2067 21.0695 14.2335 21.0742 15.2557 21.0742Z" fill="#39629C" stroke="#39629C" stroke-width="0.3"/>
<path d="M15.2913 12.6956C16.426 12.6956 17.5607 12.6956 18.7 12.6956C18.7704 12.6956 18.8407 12.6956 18.911 12.7096C19.047 12.7424 19.1173 12.8409 19.1127 12.9816C19.1127 13.1222 19.0376 13.216 18.9017 13.2441C18.836 13.2582 18.761 13.2582 18.6907 13.2582C16.4213 13.2582 14.1473 13.2582 11.878 13.2582C11.5919 13.2582 11.456 13.1691 11.4513 12.9816C11.4466 12.7893 11.5919 12.6956 11.8873 12.6956C13.0173 12.6956 14.1567 12.6956 15.2913 12.6956Z" fill="#39629C" stroke="#39629C" stroke-width="0.3"/>
<path d="M15.2791 17.4452C14.1445 17.4452 13.0098 17.4452 11.8704 17.4452C11.8142 17.4452 11.7532 17.4452 11.6969 17.4358C11.5422 17.4124 11.4531 17.3092 11.4531 17.1592C11.4531 17.0092 11.5375 16.906 11.6969 16.8873C11.7485 16.8826 11.8001 16.8826 11.8564 16.8826C14.1398 16.8826 16.4232 16.8826 18.7066 16.8826C18.7722 16.8826 18.8379 16.8826 18.8988 16.8966C19.0348 16.9248 19.1098 17.0185 19.1145 17.1592C19.1192 17.2999 19.0489 17.3936 18.9129 17.4311C18.8472 17.4499 18.7722 17.4499 18.7019 17.4499C17.5625 17.4452 16.4185 17.4452 15.2791 17.4452Z" fill="#39629C" stroke="#39629C" stroke-width="0.3"/>
<path d="M15.2733 15.3494C14.1433 15.3494 13.0133 15.3494 11.8833 15.3494C11.8364 15.3494 11.7895 15.3494 11.7427 15.3494C11.5692 15.34 11.4473 15.2181 11.4473 15.0634C11.452 14.9133 11.5692 14.7961 11.7333 14.7868C11.7755 14.7821 11.813 14.7868 11.8552 14.7868C14.1386 14.7868 16.422 14.7868 18.7054 14.7868C18.7382 14.7868 18.7757 14.7868 18.8086 14.7868C18.9914 14.7961 19.1039 14.8993 19.1039 15.0634C19.1039 15.2369 18.9914 15.3447 18.7992 15.3494C18.757 15.3494 18.7195 15.3494 18.6773 15.3494C17.5473 15.3494 16.4079 15.3494 15.2733 15.3494Z" fill="#39629C" stroke="#39629C" stroke-width="0.3"/>
<path d="M14.271 11.1669C13.4458 11.1669 12.6206 11.1669 11.7954 11.1669C11.5609 11.1669 11.4109 11.0122 11.4578 10.8293C11.5 10.6699 11.6078 10.6042 11.7719 10.6042C12.3768 10.6089 12.9769 10.6042 13.5818 10.6042C14.6461 10.6042 15.7105 10.6042 16.7795 10.6042C16.9389 10.6042 17.0561 10.6511 17.103 10.8106C17.1593 11.0075 17.0186 11.1669 16.7889 11.1669C16.2544 11.1716 15.7245 11.1669 15.19 11.1669C14.8806 11.1669 14.5758 11.1669 14.271 11.1669Z" fill="#39629C" stroke="#39629C" stroke-width="0.3"/>
</g>
</g>
<defs>
<filter id="filter0_d_3520_3393" x="0" y="0" width="32" height="32" filterUnits="userSpaceOnUse" color-interpolation-filters="sRGB">
<feFlood flood-opacity="0" result="BackgroundImageFix"/>
<feColorMatrix in="SourceAlpha" type="matrix" values="0 0 0 0 0 0 0 0 0 0 0 0 0 0 0 0 0 0 127 0" result="hardAlpha"/>
<feOffset dy="1"/>
<feGaussianBlur stdDeviation="2"/>
<feComposite in2="hardAlpha" operator="out"/>
<feColorMatrix type="matrix" values="0 0 0 0 0.223529 0 0 0 0 0.384314 0 0 0 0 0.611765 0 0 0 0.4 0"/>
<feBlend mode="normal" in2="BackgroundImageFix" result="effect1_dropShadow_3520_3393"/>
<feBlend mode="normal" in="SourceGraphic" in2="effect1_dropShadow_3520_3393" result="shape"/>
</filter>
<clipPath id="clip0_3520_3393">
<rect width="14.4459" height="18" fill="white" transform="translate(9 6)"/>
</clipPath>
</defs>
</svg>
